<?xml version="1.0" standalone="no"?>
<!DOCTYPE svg PUBLIC "-//W3C//DTD SVG 1.1//EN" "http://www.w3.org/Graphics/SVG/1.1/DTD/svg11.dtd" >
<svg xmlns="http://www.w3.org/2000/svg">
<metadata>Generated by IcoMoon</metadata>
<defs>
<font id="sparky-icon" horiz-adv-x="1024">
<font-face units-per-em="1024" ascent="960" descent="-64" />
<missing-glyph horiz-adv-x="1024" />
<glyph unicode="&#x20;" horiz-adv-x="512" d="" />
<glyph unicode="&#xe900;" d="M937.996 503.799l-373.155 381.952c-30.198 30.718-79.084 30.718-109.028 0l-373.151-381.952c-30.201-30.718-30.201-80.893 0-111.616l373.151-381.948c30.201-30.718 79.084-30.718 109.028 0l373.155 381.948c30.201 30.721 30.201 80.897 0 111.616z" />
<glyph unicode="&#xe901;" d="M960.802 690.411h-897.563c-34.807 0-63.219-28.929-63.219-64.512v-358.656c0-35.583 28.156-64.512 63.219-64.512h897.563c34.807 0 63.219 28.929 63.219 64.512v358.656c0 35.583-28.152 64.512-63.219 64.512z" />
<glyph unicode="&#xe902;" d="M317.418 503.039h-84.973v-25.088c3.584 3.327 8.447 6.142 14.336 8.19 6.139 2.049 12.794 3.075 20.218 3.075 13.307 0 24.568-3.075 33.528-9.473 8.956-6.401 16.124-14.849 20.475-25.858 4.606-10.495 6.652-22.27 6.652-35.327 0-24.062-6.652-42.495-19.962-56.065-13.053-13.053-31.223-19.712-54.259-19.712-16.891 0-31.223 3.075-43.51 8.96-12.028 5.889-21.241 14.336-27.895 24.834-6.142 10.498-9.214 22.529-8.703 36.353h63.215c0-3.071 1.025-6.142 3.327-8.96 2.049-2.817 5.633-4.097 10.495-4.097 4.863 0 8.447 1.792 10.752 5.376 2.301 3.584 3.58 8.447 3.58 14.59 0 5.889-1.279 10.243-4.093 13.057-2.558 3.071-6.142 4.609-11.006 4.609-4.097 0-7.164-1.025-9.469-3.071-2.046-2.049-3.33-4.35-3.33-6.914h-63.215v134.146h143.324v-58.369l0.513-0.254zM702.601 554.494l-47.348-211.968h-80.876l-24.055 120.317-24.059-120.317h-80.876l-47.348 211.968h69.87l18.683-133.633 28.152 133.633h70.894l28.152-133.633 18.683 133.633h70.127zM799.342 340.48c-15.612 0-29.431 2.558-41.459 7.677-11.774 5.122-21.241 12.29-28.409 21.504-6.911 9.217-11.006 19.458-12.028 31.234h62.447c0.766-4.863 2.817-8.706 6.142-11.009 3.584-2.305 7.934-3.584 13.053-3.584 3.327 0 5.885 0.77 7.934 2.049 2.046 1.535 2.814 3.584 2.814 5.63 0 3.841-2.046 6.401-6.142 8.193-4.093 1.535-11.002 3.327-20.73 5.376-11.774 2.305-21.754 4.863-29.431 7.681-7.681 2.814-14.332 7.681-20.221 14.336-5.63 6.911-8.444 16.128-8.444 28.159 0 10.495 2.558 19.712 7.931 28.159 5.376 8.706 13.566 15.361 24.059 19.966 10.495 4.867 23.289 7.425 38.391 7.425 22.263 0 39.667-5.633 52.208-16.641 12.798-11.265 20.221-25.854 22.78-43.774h-57.584c-1.025 4.606-3.071 8.19-6.142 10.495-3.071 2.562-7.422 3.841-12.54 3.841-3.33 0-5.889-0.77-7.681-2.049s-2.558-3.071-2.558-5.63c0-3.33 2.046-5.889 6.142-7.681 4.097-1.538 10.748-3.33 19.708-5.122 11.774-2.301 22.010-5.119 30.198-8.19s15.358-8.193 21.241-15.615c6.142-7.168 8.96-17.153 8.96-29.955 0-9.982-2.817-18.942-8.447-26.88-5.63-7.934-13.82-14.336-24.568-18.942-10.495-4.609-23.033-6.914-37.112-6.914l-0.513 0.257z" />
<glyph unicode="&#xe903;" d="M937.996 503.799l-373.155 381.952c-30.198 30.718-79.084 30.718-109.028 0l-373.151-381.952c-30.201-30.718-30.201-80.893 0-111.616l373.151-381.948c30.201-30.718 79.084-30.718 109.028 0l373.155 381.948c30.201 30.721 30.201 80.897 0 111.616z" />
<glyph unicode="&#xe904;" d="M960.802 690.411h-897.563c-34.807 0-63.219-28.929-63.219-64.512v-358.656c0-35.583 28.156-64.512 63.219-64.512h897.563c34.807 0 63.219 28.929 63.219 64.512v358.656c0 35.583-28.152 64.512-63.219 64.512z" />
<glyph unicode="&#xe905;" d="M181.808 568.31h72.941c8.193 0 13.053-3.838 15.102-11.265l74.987-219.645c0 0 0.254-1.792 0.254-3.33 0-1.279-0.766-2.817-2.301-4.35-1.279-1.279-3.071-2.049-5.122-2.049h-62.19c-6.655 0-11.006 2.817-13.053 8.706l-8.19 22.783h-72.432l-8.19-22.783c-2.046-5.63-6.398-8.706-13.053-8.706h-62.19c-2.049 0-3.841 0.77-5.376 2.049-1.279 1.535-2.046 3.071-2.046 4.35 0 1.538 0 2.817 0.254 3.33l74.987 219.645c2.049 7.681 7.168 11.265 15.102 11.265h0.509zM199.211 425.723h38.134l-19.192 63.999-18.942-63.999z" />
<glyph unicode="&#xe906;" d="M429.733 327.166h-68.608c-2.558 0-4.606 1.025-6.398 2.817s-2.817 4.097-2.817 6.655v222.464c0 2.558 1.025 4.606 2.817 6.655 1.792 1.792 3.838 2.817 6.398 2.817h68.608c2.562 0 4.609-1.025 6.401-2.817s2.817-4.097 2.817-6.655v-222.464c0-2.558-1.025-4.606-2.817-6.655-1.792-1.792-3.838-2.817-6.401-2.817z" />
<glyph unicode="&#xe907;" d="M471.468 568.307h96.997c32.762 0 59.635-8.447 80.876-25.088s31.993-39.678 31.993-69.634v-51.198c0-31.234-10.239-54.785-30.97-70.913s-47.861-24.062-81.389-24.062h-97.256c-2.558 0-4.606 1.025-6.398 2.817s-2.817 4.093-2.817 6.655v222.461c0 2.558 1.025 4.609 2.817 6.655 1.792 1.792 3.838 2.817 6.398 2.817l-0.254-0.513zM546.456 501.237v-106.753h21.754c7.677 0 13.566 2.305 18.17 6.914 4.609 4.863 7.168 11.774 7.168 20.991v51.198c0 18.433-8.447 27.65-25.338 27.65h-21.754z" />
<glyph unicode="&#xe908;" d="M771.696 568.31h72.941c8.19 0 13.053-3.838 15.099-11.265l74.991-219.645c0 0 0.254-1.792 0.254-3.33 0-1.279-0.766-2.817-2.305-4.35-1.279-1.279-3.068-2.049-5.119-2.049h-62.19c-6.655 0-11.006 2.817-13.053 8.706l-8.193 22.783h-72.429l-8.19-22.783c-2.046-5.63-6.398-8.706-13.053-8.706h-62.193c-2.046 0-3.838 0.77-5.372 2.049-1.279 1.535-2.049 3.071-2.049 4.35 0 1.538 0 2.817 0.257 3.33l74.987 219.645c2.046 7.681 7.168 11.265 15.099 11.265h0.513zM789.099 425.723h38.134l-19.192 63.999-18.942-63.999z" />
<glyph unicode="&#xe909;" d="M1007.986 527.948l-50.187-214.030c-43.018-184.847-128.034-259.605-288.074-244.242-25.61 2.046-53.262 6.656-82.968 13.824l-86.036 20.48c-213.815 50.692-279.88 156.173-229.694 370.204l50.19 214.543c10.243 43.524 22.535 81.416 37.901 112.65 59.917 123.911 161.832 157.195 333.138 116.742l85.527-19.967c214.84-50.18 280.393-156.173 230.203-370.204z" />
<glyph unicode="&#xe90a;" d="M669.797 69.666c-31.753-21.506-71.699-39.427-120.353-55.302l-80.915-26.625c-203.575-65.542-310.609-10.753-376.673 192.524l-65.553 202.257c-65.555 203.277-11.269 310.805 192.302 376.347l80.919 26.625c20.996 6.656 40.972 12.291 59.917 15.875-15.363-31.233-27.652-69.127-37.897-112.65l-50.19-214.543c-50.187-214.030 15.879-319.512 229.694-370.204l86.036-20.48c29.707-7.169 57.359-11.778 82.968-13.824h-0.257z" />
<glyph unicode="&#xe90b;" d="M794.217 524.624c-3.071 0-6.146 0.513-9.731 1.026l-248.641 62.978c-20.483 5.123-32.778 26.115-27.656 46.595 5.123 20.483 26.119 32.771 46.606 27.652l248.641-62.982c20.483-5.119 32.775-26.115 27.652-46.595-4.097-16.896-19.971-28.674-36.872-28.674z" />
<glyph unicode="&#xe90c;" d="M644.201 351.547c-3.071 0-6.143 0.513-9.727 1.026l-149.034 37.888c-20.483 5.123-32.775 26.115-27.652 46.595 5.123 20.483 26.119 32.771 46.602 27.652l149.030-37.892c20.487-5.119 32.778-26.115 27.656-46.595-4.097-17.409-19.463-28.674-36.875-28.674z" />
<glyph unicode="&#xe90d;" d="M726.548 959.995h-429.054c-186.368 0-297.475-111.104-297.475-297.471v-429.054c0-186.368 111.107-297.471 297.475-297.471h429.054c186.368 0 297.471 111.104 297.471 297.471v429.054c0 186.368-111.104 297.471-297.471 297.471z" />
<glyph unicode="&#xe90e;" d="M835.062 608.244c0-20.995-16.898-38.402-38.402-38.402h-268.799c-20.991 0-38.398 17.407-38.398 38.402 0 20.991 17.407 38.398 38.398 38.398h268.799c21.504 0 38.402-17.407 38.402-38.398z" />
<glyph unicode="&#xe90f;" d="M408.061 657.917l-115.197-115.201c-7.681-7.677-17.411-11.261-27.137-11.261s-19.966 3.584-27.134 11.261l-38.402 38.402c-15.358 14.849-15.358 39.424 0 54.273 14.849 14.845 38.915 14.845 54.273 0l11.265-11.265 88.065 88.062c14.845 14.849 38.911 14.849 54.269 0 14.849-14.849 14.849-39.424 0-54.273z" />
<glyph unicode="&#xe910;" d="M835.062 249.844c0-20.995-16.898-38.402-38.402-38.402h-268.799c-20.991 0-38.398 17.407-38.398 38.402 0 20.991 17.407 38.398 38.398 38.398h268.799c21.504 0 38.402-17.407 38.402-38.398z" />
<glyph unicode="&#xe911;" d="M408.061 299.518l-115.197-115.201c-7.681-7.677-17.411-11.261-27.137-11.261s-19.966 3.584-27.134 11.261l-38.402 38.402c-15.358 14.849-15.358 39.424 0 54.273 14.849 14.845 38.915 14.845 54.273 0l11.265-11.265 88.065 88.062c14.845 14.849 38.911 14.849 54.269 0 14.849-14.849 14.849-39.424 0-54.273z" />
<glyph unicode="&#xe912;" d="M895.98 575.998v-256.002c0-211.456-172.545-384.001-384.001-384.001s-383.997 172.545-383.997 384.001v256.002c0 105.471 43.008 201.726 112.639 271.358 60.928 60.928 142.334 101.377 232.96 110.591 12.29 1.538 25.601 2.046 38.398 2.046 12.801 0 26.113-0.509 38.402-2.046 193.536-19.458 345.599-183.297 345.599-381.95z" />
<glyph unicode="&#xe913;" d="M607.749 678.398v-102.398c0-52.738-43.008-96.259-95.742-96.259-52.738 0-96.255 43.521-96.255 96.259v102.398c0 39.424 24.062 73.218 57.853 88.062v191.49c12.29 1.538 25.601 2.046 38.402 2.046 12.798 0 26.11-0.509 38.398-2.046v-191.49c33.791-14.845 57.344-48.638 57.344-88.062z" />
<glyph unicode="&#xe914;" d="M230.071 149.502h94.693c20.988 0 38.392 17.407 38.392 38.399s-17.404 38.399-38.392 38.399h-94.693c-20.988 0-38.392-17.407-38.392-38.399s17.404-38.399 38.392-38.399z" />
<glyph unicode="&#xe915;" d="M461.981 149.502h331.435c20.988 0 38.392 17.407 38.392 38.399s-17.404 38.399-38.392 38.399h-331.435c-20.988 0-38.392-17.407-38.392-38.399s16.891-38.399 38.392-38.399z" />
<glyph unicode="&#xe916;" d="M230.071 342.022h283.318c20.988 0 38.392 17.407 38.392 38.399s-17.404 38.399-38.392 38.399h-283.318c-20.988 0-38.392-17.407-38.392-38.399s17.404-38.399 38.392-38.399z" />
<glyph unicode="&#xe917;" d="M651.332 342.022h141.787c20.988 0 38.392 17.407 38.392 38.399s-17.404 38.399-38.392 38.399h-141.787c-20.988 0-38.392-17.407-38.392-38.399s17.404-38.399 38.392-38.399z" />
<glyph unicode="&#xe918;" d="M297.164 960.003h429.202c186.321 0 297.654-111.104 297.654-297.472v-428.546c0-186.878-111.080-297.982-297.654-297.982h-428.693c-186.318 0-297.651 111.104-297.651 297.472v429.055c-0.513 186.368 110.563 297.472 297.143 297.472z" />
<glyph unicode="&#xe919;" d="M891.791 616.951h-190.694c-82.833 0-132.212-49.194-132.212-131.71v-189.972c0-82.516 49.381-131.708 132.212-131.708h190.694c82.833 0 132.212 49.192 132.212 131.708v189.972c0 82.516-49.381 131.71-132.212 131.71z" />
<glyph unicode="&#xe91a;" d="M939.957 461.216c0-9.295-7.511-17.001-17.069-17.001h-119.469c-9.33 0-17.066 7.707-17.066 17.001s7.736 17.001 17.066 17.001h119.469c9.558 0 17.069-7.707 17.069-17.001z" />
<glyph unicode="&#xe91b;" d="M750.237 483.195l-51.2-51.008c-3.415-3.4-7.739-4.986-12.061-4.986-4.325 0-8.875 1.585-12.061 4.986l-17.069 17.001c-6.825 6.576-6.825 17.456 0 24.031 6.6 6.574 17.297 6.574 24.122 0l5.008-4.988 39.141 38.992c6.597 6.574 17.294 6.574 24.119 0 6.6-6.574 6.6-17.456 0-24.029z" />
<glyph unicode="&#xe91c;" d="M939.957 302.532c0-9.295-7.511-17.001-17.069-17.001h-119.469c-9.33 0-17.066 7.707-17.066 17.001s7.736 17.001 17.066 17.001h119.469c9.558 0 17.069-7.707 17.069-17.001z" />
<glyph unicode="&#xe91d;" d="M750.237 324.511l-51.2-51.005c-3.415-3.4-7.739-4.988-12.061-4.988-4.325 0-8.875 1.588-12.061 4.988l-17.069 17.001c-6.825 6.574-6.825 17.456 0 24.029 6.6 6.574 17.297 6.574 24.122 0l5.008-4.986 39.141 38.99c6.597 6.576 17.294 6.576 24.119 0 6.6-6.574 6.6-17.456 0-24.029z" />
<glyph unicode="&#xe91e;" d="M322.912 616.951h-190.697c-82.831 0-132.212-49.194-132.212-131.71v-189.972c0-82.516 49.381-131.708 132.212-131.708h190.697c82.833 0 132.212 49.192 132.212 131.708v189.972c0 82.516-49.381 131.71-132.212 131.71z" />
<glyph unicode="&#xe91f;" d="M355.989 463.937c0-9.295-7.511-17.001-17.069-17.001h-119.469c-9.33 0-17.066 7.707-17.066 17.001s7.736 17.001 17.066 17.001h119.469c9.558 0 17.069-7.707 17.069-17.001z" />
<glyph unicode="&#xe920;" d="M229.469 463.937c0-9.295-7.511-17.001-17.069-17.001h-119.469c-9.33 0-17.067 7.707-17.067 17.001s7.736 17.001 17.067 17.001h119.469c9.558 0 17.069-7.707 17.069-17.001z" />
<glyph unicode="&#xe921;" d="M355.989 297.683c0-9.295-7.511-17.001-17.069-17.001h-119.469c-9.33 0-17.066 7.707-17.066 17.001s7.736 17.001 17.066 17.001h119.469c9.558 0 17.069-7.707 17.069-17.001z" />
<glyph unicode="&#xe922;" d="M229.469 297.683c0-9.295-7.511-17.001-17.069-17.001h-119.469c-9.33 0-17.067 7.707-17.067 17.001s7.736 17.001 17.067 17.001h119.469c9.558 0 17.069-7.707 17.069-17.001z" />
<glyph unicode="&#xe923;" d="M807.983 661.54c-175.804 107.342-397.195 107.342-573.001 0-6.696-4.089-15.453-1.994-19.559 4.678s-2.002 15.393 4.694 19.484c184.925 112.909 417.805 112.909 602.73 0 6.696-4.091 8.798-12.813 4.694-19.484s-12.861-8.766-19.559-4.678z" />
<glyph unicode="&#xe924;" d="M947.17 355.332h-147.97c-121.344 0-220.159-98.818-220.159-220.163v-147.97c0-28.159-23.042-51.198-51.202-51.198h-217.086c-157.697 0-285.186 102.398-285.186 285.183v453.631c0 182.785 127.49 285.186 285.186 285.186h402.431c157.697 0 285.186-102.402 285.186-285.186v-268.288c0-28.159-23.042-51.198-51.202-51.198z" />
<glyph unicode="&#xe925;" d="M706.543-53.252c-20.991-20.991-57.344-6.655-57.344 22.53v178.688c0 74.751 63.49 136.705 140.802 136.705 48.638 0.513 116.227 0.513 174.078 0.513 29.185 0 44.546-34.305 24.066-54.786-73.729-74.239-205.827-207.873-281.602-283.65z" />
<glyph unicode="&#xe926;" d="M767.98 742.405h-307.199c-20.991 0-38.402-17.411-38.402-38.402s17.411-38.399 38.402-38.399h307.199c20.991 0 38.399 17.407 38.399 38.399s-17.407 38.402-38.399 38.402z" />
<glyph unicode="&#xe927;" d="M563.179 742.405h-307.199c-20.991 0-38.399-17.411-38.399-38.402s17.407-38.399 38.399-38.399h307.199c20.991 0 38.399 17.407 38.399 38.399s-17.407 38.402-38.399 38.402z" />
<glyph unicode="&#xe928;" d="M230.071 746.55h94.693c20.988 0 38.392-17.404 38.392-38.392 0-20.984-17.404-38.388-38.392-38.388h-94.693c-20.988 0-38.392 17.404-38.392 38.388 0 20.988 17.404 38.392 38.392 38.392z" />
<glyph unicode="&#xe929;" d="M461.981 746.55h331.435c20.988 0 38.392-17.404 38.392-38.392 0-20.984-17.404-38.388-38.392-38.388h-331.435c-20.988 0-38.392 17.404-38.392 38.388 0 20.988 16.891 38.392 38.392 38.392z" />
<glyph unicode="&#xe92a;" d="M230.071 554.087h283.318c20.988 0 38.392-17.404 38.392-38.392s-17.404-38.392-38.392-38.392h-283.318c-20.988 0-38.392 17.404-38.392 38.392s17.404 38.392 38.392 38.392z" />
<glyph unicode="&#xe92b;" d="M651.332 554.087h141.787c20.988 0 38.392-17.404 38.392-38.392s-17.404-38.392-38.392-38.392h-141.787c-20.988 0-38.392 17.404-38.392 38.392s17.404 38.392 38.392 38.392z" />
<glyph unicode="&#xe92c;" d="M297.164-63.746h429.202c186.321 0 297.654 111.076 297.654 297.397v428.439c0 186.83-111.080 297.906-297.654 297.906h-428.693c-186.318 0-297.651-111.076-297.651-297.397v-428.948c-0.513-186.321 110.563-297.397 297.143-297.397z" />
<glyph unicode="&#xe92d;" d="M879.024 731.742c-56.663 104.968-162.043 180.494-281.785 202.255-125.38 23.044-251.785-10.753-346.397-92.677-95.125-81.412-146.663-199.95-142.301-324.629 4.613-131.846 88.459-267.025 210.505-342.803l1.538-42.244c0-14.337 0-36.099 18.205-53.51 18.462-17.664 45.125-18.943 65.895-18.175l261.526 9.214c27.436 1.026 48.205 9.218 62.050 24.067 18.717 20.48 17.179 46.082 16.409 59.649l-1.279 35.588c154.354 111.877 245.889 339.988 135.633 543.010v0.254z" />
<glyph unicode="&#xe92e;" d="M705.452-71.627c-3.075 0-6.666 0.254-9.741 1.279-103.587 25.347-211.018 21.763-312.552-11.006-18.721-5.634-38.975 4.351-44.617 22.785-6.153 18.688 4.358 38.914 22.821 44.546 114.097 36.612 235.376 40.965 351.781 12.291 18.975-4.864 31.024-23.81 25.896-43.011-4.613-15.875-18.458-26.628-33.842-27.135l0.254 0.254z" />
<glyph unicode="&#xe92f;" d="M524.652 337.75c-6.666 0-13.334 1.026-18.975 4.351-18.717 9.986-25.637 33.284-16.15 51.458l40.767 76.807-42.82-1.538c-25.384-0.767-46.92 9.473-58.713 27.907-11.796 18.947-11.796 42.498 0.254 65.283l51.28 96.52c10 18.688 33.333 25.602 51.537 16.129 18.717-9.986 25.641-33.284 16.154-51.458l-40.767-77.318 42.816 1.538c25.384 0.767 46.92-9.473 58.716-27.907 11.796-18.947 11.792-42.498-0.257-65.283l-51.28-96.52c-6.666-12.545-19.23-19.456-32.563-19.967z" />
<glyph unicode="&#xe930;" d="M868.893 873.84v-172.841c0-47.883-39.946-86.294-89.876-86.294h-423.785c-19.971 0-39.943 6.916-55.819 18.695l-112.411 86.291c-44.557 34.569-44.557 100.634 0 135.199l112.411 86.294c15.878 11.78 35.849 18.691 55.819 18.691h423.785c49.675 0 89.876-38.408 89.876-86.291v0.254z" />
<glyph unicode="&#xe931;" d="M836.596 226.251l-111.898-86.291c-15.878-11.78-35.849-18.691-56.332-18.691h-423.785c-49.675 0-89.876 38.408-89.876 86.291v172.841c0 47.886 39.946 86.294 89.876 86.294h423.785c20.483 0 40.456-6.916 56.332-18.691l111.898-86.294c45.068-34.569 45.068-100.63 0-135.199v-0.257z" />
<glyph unicode="&#xe932;" d="M549.863 614.711h-77.075v-148.006h77.075v148.006z" />
<glyph unicode="&#xe933;" d="M703.708-26.996c0-20.23-17.411-37.128-38.408-37.128h-307.786c-20.996 0-38.411 16.899-38.411 37.128s17.415 37.128 38.411 37.128h115.483v111.131h77.075v-111.131h115.483c20.996 0 38.411-16.899 38.411-37.128h-0.257z" />
<glyph unicode="&#xe934;" d="M358.657 765.696h-192.001c-21.247 0-38.654 17.407-38.654 38.657v116.993c0 21.247 17.407 38.654 38.654 38.654h690.685c21.25 0 38.657-17.407 38.657-38.654v-116.993c0-21.25-17.407-38.657-38.657-38.657h-195.837c-21.25 0-38.657-17.407-38.657-38.657v-752.381c0-21.25-17.407-38.657-38.657-38.657h-148.223c-21.247 0-38.657 17.407-38.657 38.657v752.381c0 21.25-17.407 38.657-38.654 38.657z" />
<glyph unicode="&#xe935;" d="M397.288 740.095h225.538v-765.44c0-21.247-17.407-38.654-38.657-38.654h-148.223c-21.25 0-38.657 17.407-38.657 38.654v765.44z" />
<glyph unicode="&#xe936;" d="M682.582 862.63v-438.842c0-53.766-43.771-97.55-97.527-97.55h-536.279v311.082c35.583-42.502 90.106-68.876 150.774-67.338 49.147 1.025 93.689 19.973 126.709 51.721 15.101 12.8 27.903 28.673 37.629 46.342 17.661 29.699 27.391 64.776 26.365 101.391-1.538 57.096-26.878 107.279-66.299 141.841h309.992c26.878 0 48.634-22.019 48.634-48.646z" />
<glyph unicode="&#xe937;" d="M1023.827 326.232v-146.194c0-80.907-65.273-146.194-146.163-146.194h-48.637c0 53.766-43.771 97.55-97.527 97.55s-97.527-43.782-97.527-97.55h-195.059c0 53.766-43.771 97.55-97.527 97.55s-97.53-43.782-97.53-97.55h-48.634c-80.887 0-146.166 65.287-146.166 146.194v146.194h536.279c53.756 0 97.527 43.782 97.527 97.55v341.295h89.593c35.071 0 67.324-18.948 84.73-49.161l83.451-145.937h-62.969c-26.878 0-48.637-22.022-48.637-48.65v-146.194c0-26.885 22.015-48.646 48.637-48.646h146.163v-0.257z" />
<glyph unicode="&#xe938;" d="M341.379-63.981c53.756 0 97.527 43.782 97.527 97.55s-43.771 97.55-97.527 97.55c-53.756 0-97.527-43.782-97.527-97.55s43.771-97.55 97.527-97.55z" />
<glyph unicode="&#xe939;" d="M731.249-63.981c53.756 0 97.527 43.782 97.527 97.55s-43.771 97.55-97.527 97.55c-53.756 0-97.527-43.782-97.527-97.55s43.771-97.55 97.527-97.55z" />
<glyph unicode="&#xe93a;" d="M1023.806 397.938v-71.688h-146.166c-26.878 0-48.634 22.019-48.634 48.646v146.194c0 26.885 22.015 48.65 48.634 48.65h62.972l70.649-123.922c8.193-14.592 12.8-31.235 12.8-48.391l-0.257 0.513z" />
<glyph unicode="&#xe93b;" d="M323.68 911.271c-35.067 31.235-81.913 49.67-133.11 48.646-45.818-1.025-87.801-17.922-120.821-45.316-43.771-36.614-71.162-92.685-69.625-154.132 1.022-36.614 11.773-70.668 30.715-99.599 5.376-8.193 11.264-16.643 17.919-23.81 35.583-42.502 90.106-68.876 150.77-67.338 49.15 1.025 93.689 19.973 126.713 51.721 15.101 12.8 27.9 28.673 37.629 46.342 17.661 29.699 27.387 64.776 26.365 101.391-1.538 57.096-26.878 107.279-66.299 141.841l-0.257 0.257zM295.523 788.375l-101.879-98.573c-7.425-6.914-16.127-10.242-25.343-10.242-9.213 0-17.919 3.33-25.34 10.242l-49.15 46.854c-14.589 14.085-15.101 37.127-1.022 51.721 14.078 14.592 37.116 15.105 51.707 1.025l23.807-23.044 76.537 74.247c14.592 14.085 37.629 13.572 51.71-1.022 14.078-14.085 13.568-37.127-1.025-51.208z" />
<glyph unicode="&#xe93c;" d="M85.292 103.432c0-5.376 4.35-9.726 9.726-9.726h698.606c54.271 0 98.558 44.029 98.558 98.558 0 54.525-44.029 98.558-98.558 98.558h-698.606c-5.376 0-9.726-4.354-9.726-9.73v-177.657z" />
<glyph unicode="&#xe93d;" d="M793.836 93.455h-698.609c-5.376 0-9.726 4.35-9.726 9.726v-37.885c3.071-0.77 6.401-1.279 9.726-1.279h698.609c70.653 0 127.995 57.343 127.995 127.995s-57.343 127.995-127.995 127.995h-698.609c-3.327 0-6.655-0.513-9.726-1.279v-37.885c0 5.376 4.35 9.726 9.726 9.726h698.609c54.271 0 98.558-44.286 98.558-98.558s-44.032-98.558-98.558-98.558z" />
<glyph unicode="&#xe93e;" d="M0.031 359.435c0-5.376 4.354-9.73 9.985-9.73h698.609c54.271 0 98.558 44.286 98.558 98.558s-44.286 98.558-98.558 98.558h-698.609c-5.376 0-9.985-4.35-9.985-9.726v-177.657z" />
<glyph unicode="&#xe93f;" d="M708.624 349.439h-698.609c-5.376 0-9.985 4.35-9.985 9.726v-37.888c3.075-0.766 6.401-1.279 9.985-1.279h698.609c70.653 0 127.995 57.343 127.995 127.999 0 70.653-57.343 127.995-127.995 127.995h-698.609c-3.327 0-6.655-0.513-9.985-1.279v-37.888c0 5.376 4.354 9.73 9.985 9.73h698.609c54.271 0 98.558-44.29 98.558-98.558 0-54.271-44.286-98.558-98.558-98.558z" />
<glyph unicode="&#xe940;" d="M187.42 615.415c0-5.376 4.35-9.726 9.726-9.726h698.606c54.271 0 98.558 44.286 98.558 98.558s-44.286 98.558-98.558 98.558h-698.606c-5.376 0-9.726-4.35-9.726-9.726v-177.661z" />
<glyph unicode="&#xe941;" d="M896.034 605.438h-698.609c-5.376 0-9.726 4.354-9.726 9.73v-37.888c3.071-0.766 6.398-1.279 9.726-1.279h698.609c70.653 0 127.995 57.343 127.995 127.995 0 70.656-57.343 127.999-127.995 127.999h-698.609c-3.33 0-6.655-0.513-9.726-1.283v-37.885c0 5.376 4.35 9.726 9.726 9.726h698.609c54.268 0 98.558-44.286 98.558-98.558s-44.29-98.558-98.558-98.558z" />
<glyph unicode="&#xe942;" d="M0.005 398.335v306.176c0 141.31 114.687 255.484 256 255.484h511.995c141.313 0 256-114.174 256-255.484v-357.375c0-140.797-114.687-254.975-256-254.975h-76.798c-15.874 0-31.234-7.677-40.962-20.478l-76.798-101.886c-33.794-45.057-89.090-45.057-122.88 0l-76.802 101.886c-8.193 11.265-26.623 20.478-40.958 20.478h-76.802c-141.313 0-256 114.178-256 254.975v51.201z" />
<glyph unicode="&#xe943;" d="M512.010 447.994c-28.672 0-51.198 23.039-51.198 51.201 0 28.159 23.039 51.198 51.198 51.198 28.163 0 51.201-23.039 51.201-51.198 0-28.163-22.529-51.201-51.201-51.201z" />
<glyph unicode="&#xe944;" d="M716.832 447.994c-28.672 0-51.201 23.039-51.201 51.201 0 28.159 23.042 51.198 51.201 51.198s51.201-23.039 51.201-51.198c0-28.163-22.529-51.201-51.201-51.201z" />
<glyph unicode="&#xe945;" d="M307.194 447.994c-28.672 0-51.201 23.039-51.201 51.201 0 28.159 23.042 51.198 51.201 51.198s51.201-23.039 51.201-51.198c0-28.163-22.529-51.201-51.201-51.201z" />
<glyph unicode="&#xe946;" d="M0 690.106v-485.479c0-32.76 26.105-59.119 58.356-59.119h33.017v-119.258c0-22.779 26.362-34.548 43.252-19.448l152.544 138.708h555.91c32.251 0 58.356 26.359 58.356 59.119v485.479c0 32.756-26.105 59.115-58.356 59.115h-784.724c-32.251 0-58.356-26.359-58.356-59.115z" />
<glyph unicode="&#xe947;" d="M560.54 339.227c0-21.246-17.149-38.396-38.389-38.396-1.792 0-3.584 0.254-5.376 0.513h-276.165c-21.24 0-38.389 17.153-38.389 38.396 0 21.249 17.149 38.396 38.389 38.396h275.909c1.279 0 5.118-0.509 5.629-0.509 21.24 0 38.389-17.153 38.389-38.4z" />
<glyph unicode="&#xe948;" d="M560.54 492.274c0-21.246-17.149-38.396-38.389-38.396-1.792 0-3.584 0.257-5.376 0.513h-276.165c-21.24 0-38.389 17.153-38.389 38.396 0 21.249 17.149 38.4 38.389 38.4h275.909c1.279 0 5.118-0.513 5.629-0.513 21.24 0 38.389-17.153 38.389-38.4z" />
<glyph unicode="&#xe949;" d="M1022.3 828.033l-24.833-40.437-99.067 61.164 25.344 41.46c4.097 6.651 14.078 7.677 22.269 2.301l68.605-43.249c8.193-5.118 11.777-14.844 7.68-21.24z" />
<glyph unicode="&#xe94a;" d="M749.657 384.271l-4.354-6.91c-3.584-5.885-15.87-11.514-23.548-15.611-24.32-14.073-57.341-33.526-61.691-36.34-4.354-3.33-13.569-8.447-18.432-5.376s-4.097 13.565-3.33 18.941c0.513 4.859 3.071 43.762 5.122 72.168 1.792 11.261 1.792 25.85 5.629 31.988l2.305 3.584 98.555-62.186-0.254-0.257z" />
<glyph unicode="&#xe94b;" d="M997.141 787.593l-3.838-6.398-243.658-396.677-98.541 62.19 246.989 402.049 99.050-61.164z" />
<glyph unicode="&#xe94c;" d="M1024 601.615v-285.528c0-79.056-55.282-175.512-122.594-213.889 0 0-191.696-104.646-305.585-160.418-27.898-13.559-73.711-2.046-95.467 22.003-14.073-24.048-44.53-35.56-72.171-22.003-113.637 55.774-305.589 160.418-305.589 160.418-67.565 38.12-122.594 134.574-122.594 213.889v285.528c0 26.866 17.15 47.587 38.904 54.498-13.053 20.211-12.798 47.587 4.35 66.776 16.124 18.163 34.295 33.259 53.49 43.75l299.441 166.3c64.239 36.076 167.896 36.076 232.134 0l299.187-166.3c19.449-10.489 37.621-26.099 53.746-43.75 16.378-19.189 16.378-46.567 3.33-66.776 22.010-6.911 39.413-27.632 39.413-54.498z" />
<glyph unicode="&#xe94d;" d="M931.671 661.742l-393.37-228.475c-15.871-9.21-35.833-9.21-52.211 0l-393.37 228.475c-28.152 16.371-35.32 54.748-13.82 78.8 14.845 16.884 31.736 30.7 49.649 40.423l276.924 153.509c59.375 33.259 155.352 33.259 214.472 0l276.92-153.509c17.916-9.723 34.807-24.048 49.652-40.423 20.475-24.052 13.307-62.429-14.845-78.8z" />
<glyph unicode="&#xe94e;" d="M482.993 338.34v-349.233c0-38.89-39.413-64.471-73.967-47.587-105.19 51.681-282.55 148.394-282.55 148.394-62.447 35.306-113.378 124.342-113.378 197.513v264.294c0 40.423 42.485 66.010 77.035 46.054l367.269-213.38c15.354-9.723 25.594-27.12 25.594-46.054z" />
<glyph unicode="&#xe94f;" d="M541.383 338.34v-349.233c0-38.89 39.413-64.471 73.967-47.587 105.19 51.681 282.55 148.394 282.55 148.394 62.447 35.306 113.378 124.342 113.378 197.513v264.294c0 40.423-42.485 66.010-77.035 46.054l-367.269-213.38c-15.354-9.723-25.594-27.12-25.594-46.054z" />
<glyph unicode="&#xe950;" d="M819.372-63.939c-2.818 0-5.63 1.026-8.19 2.814l-275.636 210.366c-14.074 10.749-33.525 10.749-47.604 0l-275.631-210.366c-4.863-3.838-11.519-3.838-16.378 0-4.863 3.841-6.911 10.239-5.119 16.378l106.208 343.449c4.863 15.608-0.513 32.758-13.566 42.739l-277.682 211.901c-4.86 3.838-6.911 10.236-5.119 16.378s7.168 10.236 13.307 10.236h341.408c17.147 0 32.503 11.261 37.366 27.64l105.95 342.166c1.792 6.143 7.168 10.236 13.311 10.236 6.139 0 11.515-4.093 13.307-10.236l105.954-342.166c5.119-16.378 20.218-27.64 37.363-27.64h341.408c6.143 0 11.515-4.093 13.307-10.236s0-12.541-5.119-16.378l-277.682-211.901c-13.053-9.982-18.426-27.13-13.563-42.739l106.208-343.449c1.792-6.139 0-12.537-5.119-16.378-2.559-1.789-5.376-2.814-8.19-2.814h-0.513z" />
<glyph unicode="&#xe951;" d="M665.23 191.99c-1.535 0-2.814 0.513-4.093 1.279l-137.944 105.184c-6.911 5.376-16.891 5.376-23.802 0l-137.944-105.184c-2.559-1.789-5.63-1.789-8.19 0-2.559 1.792-3.584 5.119-2.559 8.19l53.233 171.724c2.559 7.935-0.257 16.378-6.914 21.497l-138.966 105.95c-2.559 1.792-3.584 5.119-2.559 8.19 1.022 3.071 3.581 5.119 6.652 5.119h170.706c8.698 0 16.121 5.63 18.68 13.82l52.98 170.958c1.022 3.071 3.584 5.119 6.652 5.119 3.071 0 5.63-2.046 6.655-5.119l52.98-170.958c2.559-8.19 10.236-13.82 18.68-13.82h170.706c3.071 0 5.63-2.046 6.652-5.119 1.026-3.071 0-6.398-2.559-8.19l-138.966-105.95c-6.655-4.863-9.214-13.563-6.914-21.497l53.233-171.724c1.026-3.071 0-6.398-2.559-8.19-1.279-1.022-2.559-1.279-4.093-1.279h0.254z" />
<glyph unicode="&#xe952;" d="M920.18 550.462v-409.645c0-153.616-51.205-204.821-204.821-204.821h-409.645c-153.616 0-204.821 51.205-204.821 204.821v409.645h819.288z" />
<glyph unicode="&#xe953;" d="M998.475 704.076v-51.208c0-56.325-27.137-102.41-102.41-102.41h-768.084c-78.345 0-102.413 46.083-102.413 102.41v51.208c0 56.325 24.066 102.41 102.413 102.41h768.084c75.271 0 102.41-46.083 102.41-102.41z" />
<glyph unicode="&#xe954;" d="M493.601 806.505h-282.655c-17.411 18.949-16.898 48.134 1.538 66.57l72.712 72.712c18.945 18.945 50.179 18.945 69.128 0l139.277-139.28z" />
<glyph unicode="&#xe955;" d="M812.642 806.505h-282.652l139.277 139.28c18.945 18.945 50.183 18.945 69.128 0l72.712-72.712c18.433-18.436 18.945-47.621 1.535-66.57z" />
<glyph unicode="&#xe956;" d="M355.341 550.462v-263.197c0-40.966 45.062-65.031 79.367-43.011l48.134 31.747c17.411 11.265 39.431 11.265 56.329 0l45.57-30.726c33.798-22.529 79.371 1.538 79.371 42.502v262.684h-308.77z" />
<glyph unicode="&#xe957;" d="M512.021-64.002c282.878 0 511.998 229.122 511.998 511.998 0 282.882-229.122 511.998-511.998 511.998-282.882 0-512.002-229.118-512.002-511.998 0-282.878 229.122-511.998 512.002-511.998z" />
<glyph unicode="&#xe958;" d="M210.346 300.246v187.626h-56.745v56.667h182.017v-56.667h-56.745v-187.626h-68.526z" />
<glyph unicode="&#xe959;" d="M430.478 544.539v-244.293h-68.462v244.293h68.462z" />
<glyph unicode="&#xe95a;" d="M545.152 300.246h-68.462v244.293h106.907c31.335 0 53.781-6.867 67.275-20.526 13.498-13.662 20.211-36.274 20.211-67.839 0-31.561-6.583-54.714-19.812-69.583-13.232-14.873-33.836-22.277-61.817-22.277h-44.301v-64.067zM581.293 414.787c6.713 0 11.385 1.143 14.021 3.502 2.565 2.355 3.885 6.662 3.885 12.92v40.245c0 6.258-1.319 10.566-3.885 12.92s-7.24 3.498-14.021 3.498h-36.141v-73.085h36.141z" />
<glyph unicode="&#xe95b;" d="M776.935 352.2c13.498 0 25.016 0.81 34.625 2.359v33.647l-35.413 3.096c-20.998 1.816-37.525 5.383-49.57 10.766-12.045 5.318-20.737 13.057-26.070 23.084-5.329 10.027-7.964 23.487-7.964 40.446 0 21.131 2.896 37.754 8.755 50.004 5.859 12.246 15.339 21.131 28.569 26.582 13.232 5.448 31.271 8.207 54.047 8.207 30.084 0 59.509-3.498 88.277-10.566l-8.559-55.114c-13.232 2.623-24.687 4.508-34.428 5.652s-19.88 1.748-30.546 1.748c-13.228 0-24.092-0.674-32.65-1.949v-33.582l31.862-2.76c31.138-2.893 53.387-10.365 66.881-22.479 13.498-12.11 20.211-30.823 20.211-56.058 0-28.399-7.831-48.993-23.501-61.777-15.666-12.787-41.144-19.182-76.429-19.182s-66.486 4.308-96.043 12.92l9.746 56.667c25.406-7.81 51.476-11.713 78.137-11.713h0.065z" />
<glyph unicode="&#xe95c;" d="M532.738 648.233c-13.871 0-26.227 2.161-35.123 6.176-1.96 0.924-4.067 1.542-6.33 1.542h-461.866l504.071-233.091c4.072-1.853 8.594-1.853 12.663 0l469.253 226.611c12.362 6.018 11.156 24.544-1.96 28.712l-475.28 153.131c-3.014 0.924-6.179 0.924-9.046 0l-481.159-156.836h431.266c3.315 0 6.634 0.924 9.046 3.239 7.838 6.949 24.869 11.734 44.468 11.734 26.98 0 48.538-9.107 48.538-20.379 0-11.268-21.558-20.837-48.538-20.837z" />
<glyph unicode="&#xe95d;" d="M30.533 648.236l-9.644-266.128c0 0 0-1.078-0.301-1.696l-20.342-81.355c-0.305-1.388-0.305-2.777 0-4.169l15.369-52.327c4.373-14.819 24.866-14.665 28.938 0.308l14.165 52.019c0.452 1.391 0.301 2.935 0 4.323l-24.264 81.663c0 0-0.301 1.388-0.301 2.161l-3.465 265.2h-0.151z" />
<glyph unicode="&#xe95e;" d="M533.623 356.802l-332.985 155.6v-174.434c0.903-9.569 1.358-100.76 1.358-100.76 0-61.9 56.527-173.199 338.106-173.199 281.582 0 325.598 100.031 325.598 161.93 0 4.218 0.404 96.027 1.208 116.505l-0.602 169.958-319.871-155.446c-4.072-2.007-8.745-2.007-12.663 0l-0.151-0.154z" />
<glyph unicode="&#xe95f;" glyph-name="email-newsletter" d="M468.5 181.759c-122.881 0-225.279 117.759-225.279 263.677s99.839 263.677 225.279 263.677c125.44 0 225.279-117.759 225.279-263.677s-102.401-263.677-225.279-263.677zM468.5 634.877c-84.481 0-153.599-84.478-153.599-189.439s69.118-189.439 153.599-189.439c84.478 0 153.599 84.478 153.599 189.439s-69.121 189.439-153.599 189.439zM834.58 209.918c-46.083 0-92.162 12.798-130.562 48.638-48.638 46.079-76.802 133.12-84.478 256.002-5.122 87.038 2.558 161.28 2.558 166.398 2.558 20.482 20.478 33.281 40.959 33.281 20.482-2.558 33.281-20.478 33.281-40.962-7.681-76.799-12.798-291.838 58.882-363.518 53.76-53.76 148.478-20.478 186.88-5.122 5.119 2.562 15.358 5.122 28.159 2.562 17.92-5.122 30.718-25.601 23.039-46.083-2.558-10.239-12.798-20.478-23.039-23.039-30.721-10.239-81.919-28.159-135.679-28.159zM512.021-64.002c-284.161 0-512.002 230.401-512.002 511.998 0 281.601 230.401 511.998 512.002 511.998 281.597 0 511.998-230.398 511.998-511.998 0-63.999-12.801-127.998-35.84-186.88-7.681-17.92-28.159-28.159-46.079-20.478s-28.163 28.159-20.482 46.079c20.482 51.201 30.721 104.961 30.721 161.28 0 243.199-197.12 440.318-440.318 440.318-243.202 0-440.322-197.12-440.322-440.318s197.12-440.318 440.322-440.318c51.198 0 102.398 10.239 151.037 25.601 17.92 7.681 40.962-2.558 46.083-20.478 7.677-17.92-2.562-40.962-20.482-46.079-56.318-20.482-115.201-30.721-176.638-30.721z" />
<glyph unicode="&#xe960;" d="M882.707 776.716h-20.478l-173.057 173.034c-13.823 13.823-36.353 13.823-50.689 0-13.823-13.823-13.823-36.346 0-50.682l122.369-122.355h-497.662l122.369 122.355c13.823 13.823 13.823 36.349 0 50.682-13.823 13.823-36.353 13.823-50.689 0l-172.544-173.034h-20.478c-46.079 0-141.825 0-141.825-131.052 0-49.66 10.243-82.425 31.747-103.925 12.287-12.798 27.134-19.455 43.008-23.039 14.845-3.58 30.718-4.093 46.079-4.093h782.332c15.874 0 30.721 1.022 45.057 4.093 43.008 10.239 75.777 40.959 75.777 126.962 0 131.052-95.746 131.052-141.314 131.052z" />
<glyph unicode="&#xe961;" d="M903.777 514.615h-782.845c-14.849 0-31.234 0.513-46.083 4.609l64.512-393.676c14.336-88.055 52.738-189.418 223.233-189.418h287.232c172.544 0 203.262 86.518 221.695 183.275l77.31 399.82c-14.336-3.584-29.694-4.609-45.054-4.609zM512.096 115.308c-119.807 0-217.598 97.779-217.598 217.574 0 20.988 17.407 38.395 38.398 38.395s38.402-17.407 38.402-38.395c0-77.815 62.974-140.782 140.798-140.782 77.826 0 140.801 62.967 140.801 140.782 0 20.988 17.407 38.395 38.398 38.395s38.402-17.407 38.402-38.395c0-119.794-97.793-217.574-217.602-217.574z" />
<glyph unicode="&#xe962;" d="M1024.018 703.998v-511.997c0-153.599-85.335-256.001-284.444-256.001h-455.109c-199.113 0-284.447 102.401-284.447 256.001v511.997c0 153.599 85.335 255.998 284.447 255.998h455.109c199.109 0 284.444-102.397 284.444-255.998z" />
<glyph unicode="&#xe963;" d="M691.199 959.994v-402.429c0-22.529-26.626-33.794-43.008-18.945l-118.784 109.565c-9.726 9.217-25.088 9.217-34.814 0l-118.784-109.565c-16.382-15.361-43.008-3.584-43.008 18.945v402.429h358.399z" />
<glyph unicode="&#xe964;" d="M742.45 307.203h-217.601c-20.991 0-38.398 17.407-38.398 38.398s17.407 38.402 38.398 38.402h217.601c20.991 0 38.398-17.411 38.398-38.402s-17.407-38.398-38.398-38.398z" />
<glyph unicode="&#xe965;" d="M742.418 102.399h-435.197c-20.991 0-38.402 17.411-38.402 38.402s17.411 38.398 38.402 38.398h435.197c20.991 0 38.402-17.407 38.402-38.398s-17.411-38.402-38.402-38.402z" />
<glyph unicode="&#xe966;" d="M947.17 540.668h-147.97c-121.344 0-220.159 98.818-220.159 220.163v147.97c0 28.159-23.042 51.198-51.202 51.198h-217.086c-157.696 0-285.186-102.398-285.186-285.183v-453.631c0-182.785 127.49-285.186 285.186-285.186h402.431c157.696 0 285.186 102.402 285.186 285.186v268.288c0 28.159-23.042 51.198-51.202 51.198z" />
<glyph unicode="&#xe967;" d="M706.543 949.252c-20.991 20.991-57.344 6.655-57.344-22.53v-178.688c0-74.751 63.49-136.705 140.802-136.705 48.638-0.513 116.227-0.513 174.078-0.513 29.185 0 44.546 34.305 24.066 54.786-73.729 74.239-205.827 207.873-281.602 283.65z" />
<glyph unicode="&#xe968;" d="M588.802 358.389h-307.203c-20.991 0-38.399 17.407-38.399 38.399 0 20.995 17.407 38.402 38.399 38.402h307.203c20.991 0 38.399-17.407 38.399-38.402 0-20.991-17.407-38.399-38.399-38.399z" />
<glyph unicode="&#xe969;" d="M486.399 153.605h-204.801c-20.991 0-38.399 17.407-38.399 38.399s17.407 38.399 38.399 38.399h204.801c20.991 0 38.399-17.407 38.399-38.399s-17.407-38.399-38.399-38.399z" />
<glyph unicode="&#xe96a;" d="M783.017 769.034h-2.308c-4.354-0.254-7.684-4.35-7.43-8.956l2.821-30.452c0.254-3.33 2.817-6.398 5.892-7.168 48.414-12.794 89.662-46.576 112.717-92.381 1.538-3.071 4.613-4.609 7.684-4.35l30.23 2.814c2.562 0 4.867 1.792 6.405 4.097 1.283 2.301 1.538 5.119 0.513 7.677-28.947 65.768-87.357 113.881-156.268 128.722h-0.254z" />
<glyph unicode="&#xe96b;" d="M784.812 857.581h-1.792c-4.613-0.509-7.684-4.35-7.43-8.956l2.562-29.94c0.257-3.841 3.075-6.655 6.659-7.421 88.127-14.078 162.673-76.007 194.439-161.736 1.279-3.327 4.613-5.63 8.197-5.372l29.205 2.814c2.562 0 4.613 1.535 6.149 3.838 1.279 2.305 1.538 4.863 0.766 7.164-36.376 106.717-130.138 185.025-239.271 199.61h0.513z" />
<glyph unicode="&#xe96c;" d="M97.998 38.672h33.048c30.23 0 56.36 22.266 61.993 52.719l13.58 40.945h-171.897v-28.918c0-35.828 28.179-65.001 63.019-65.001l0.257 0.254z" />
<glyph unicode="&#xe96d;" d="M762.018 38.662h33.048c34.84 0 63.019 29.177 63.019 65.001v28.918h-171.893l13.576-40.945c5.638-30.706 31.767-52.715 61.993-52.715l0.257-0.257z" />
<glyph unicode="&#xe96e;" d="M206.618 132.584l4.609 13.823h-176.506v-13.823h171.897z" />
<glyph unicode="&#xe96f;" d="M211.226 146.393l11.529 34.56h-188.034v-34.56h176.506z" />
<glyph unicode="&#xe970;" d="M222.727 180.946l31.767 96.224c18.7 6.911 36.376 16.633 51.744 28.664 9.479 7.418 20.751 11.515 32.538 11.515h215.699c11.784 0 23.055-4.097 32.535-11.515 15.625-12.031 33.048-22.009 51.747-28.664l31.767-96.224h187.777v168.134c26.897 38.899 40.476 88.288 33.301 141.262-12.038 89.572-84.536 159.944-171.893 167.879-56.614 5.119-108.62-15.354-146.535-51.18-6.405-5.889-14.859-9.213-23.313-9.213h-206.22c-8.713 0-17.167 3.071-23.313 9.213-37.914 35.828-89.919 56.299-146.535 51.18-87.611-7.934-159.855-78.308-171.893-167.621-7.175-52.972 6.405-102.366 33.301-141.262v-168.134h187.777l-0.254-0.257zM716.381 352.408c-24.338 0-44.063 20.217-44.063 45.294 0 25.080 19.725 45.297 44.063 45.297 24.335 0 44.060-20.217 44.060-45.297 0-25.077-19.725-45.294-44.060-45.294zM798.101 526.94c24.335 0 44.060-20.217 44.060-45.297s-19.725-45.297-44.060-45.297c-24.338 0-44.063 20.217-44.063 45.297s19.725 45.297 44.063 45.297zM716.381 611.133c24.335 0 44.060-20.217 44.060-45.297 0-25.077-19.725-45.297-44.060-45.297-24.338 0-44.063 20.221-44.063 45.297 0 25.080 19.725 45.297 44.063 45.297zM634.659 526.94c24.338 0 44.063-20.217 44.063-45.297s-19.725-45.297-44.063-45.297c-24.335 0-44.060 20.217-44.060 45.297s19.725 45.297 44.060 45.297zM189.422 621.88c85.308 0 154.476-71.144 154.476-158.665 0-87.518-69.168-158.662-154.476-158.662-85.303 0-154.472 71.144-154.472 158.662 0 87.521 69.168 158.665 154.472 158.665z" />
<glyph unicode="&#xe971;" d="M858.357 146.393v34.56h-187.777l11.271-34.56h176.506z" />
<glyph unicode="&#xe972;" d="M858.285 132.584v13.823h-176.506l4.613-13.823h171.893z" />
<glyph unicode="&#xe973;" d="M34.72 463.218c0-87.777 69.168-158.665 154.476-158.665s154.476 71.144 154.476 158.665c0 87.521-69.168 158.665-154.476 158.665s-154.476-71.144-154.476-158.665zM297.046 499.559v-72.68h-72.498v-74.469h-70.703v74.469h-72.498v72.68h72.498v74.469h70.703v-74.469h72.498z" />
<glyph unicode="&#xe974;" d="M224.613 352.401v74.472h72.498v72.677h-72.498v74.469h-70.703v-74.469h-72.498v-72.677h72.498v-74.472h70.703z" />
<glyph unicode="&#xe975;" d="M672.4 565.843c0-25.080 19.725-45.297 44.063-45.297 24.335 0 44.060 20.217 44.060 45.297s-19.725 45.297-44.060 45.297c-24.338 0-44.063-20.217-44.063-45.297z" />
<glyph unicode="&#xe976;" d="M672.4 397.462c0-25.077 19.725-45.297 44.063-45.297 24.335 0 44.060 20.221 44.060 45.297 0 25.080-19.725 45.297-44.060 45.297-24.338 0-44.063-20.217-44.063-45.297z" />
<glyph unicode="&#xe977;" d="M590.572 481.654c0-25.080 19.725-45.297 44.063-45.297 24.335 0 44.060 20.217 44.060 45.297 0 25.077-19.725 45.294-44.060 45.294-24.338 0-44.063-20.217-44.063-45.294z" />
<glyph unicode="&#xe978;" d="M754.299 481.654c0-25.080 19.725-45.297 44.060-45.297 24.338 0 44.063 20.217 44.063 45.297 0 25.077-19.725 45.294-44.063 45.294-24.335 0-44.060-20.217-44.060-45.294z" />
<glyph unicode="&#xe979;" d="M726.982 959.999h-429.031c-186.422 0-297.631-111.144-297.631-297.459v-428.493c0-186.9 111.21-298.045 297.631-298.045h428.735c186.422 0 297.631 111.144 297.631 297.459v429.079c0.582 186.314-110.624 297.459-297.045 297.459h-0.29z" />
<glyph unicode="&#xe97a;" d="M861.649 520.672c20.484 0 37.462 16.966 37.462 37.442 0 20.472-16.978 37.438-37.462 37.438h-184.958l19.902 179.004c2.048 20.472-12.292 38.9-33.362 41.534-20.488 2.048-38.924-12.284-41.558-33.346l-21.070-187.192h-144.864l19.898 179.004c2.048 20.472-12.292 38.9-33.362 41.534-20.488 2.048-38.924-12.284-41.558-33.346l-20.484-187.192h-180.862c-20.484 0-37.458-16.966-37.458-37.438 0-20.476 16.974-37.442 37.458-37.442h172.666l-16.388-145.948h-193.15c-20.488 0-37.462-16.966-37.462-37.442 0-20.472 16.974-37.438 37.462-37.438h184.958l-19.902-179.004c-2.048-20.472 12.292-38.9 33.362-41.534h4.096c19.026 0 34.828 14.332 37.462 33.346l21.070 187.192h145.448l-19.898-179.004c-2.048-20.472 12.292-38.9 33.362-41.534h4.096c19.022 0 34.828 14.332 37.462 33.346l21.070 187.192h180.858c20.488 0 37.462 16.966 37.462 37.438 0 20.476-16.974 37.442-37.462 37.442h-172.662l16.388 145.948h191.98zM576.898 375.308h-145.448l16.388 145.948h145.448l-16.388-145.948z" />
<glyph unicode="&#xe97b;" d="M937.996 503.799l-373.155 381.952c-30.198 30.718-79.084 30.718-109.028 0l-373.151-381.952c-30.201-30.718-30.201-80.893 0-111.616l373.151-381.948c30.201-30.718 79.084-30.718 109.028 0l373.155 381.948c30.201 30.721 30.201 80.897 0 111.616z" />
<glyph unicode="&#xe97c;" d="M960.802 690.411h-897.563c-34.807 0-63.219-28.929-63.219-64.512v-358.656c0-35.583 28.156-64.512 63.219-64.512h897.563c34.807 0 63.219 28.929 63.219 64.512v358.656c0 35.583-28.152 64.512-63.219 64.512z" />
<glyph unicode="&#xe97d;" d="M328.356 554.76v-211.968h-65.007v82.689h-61.68v-82.689h-65.011v211.968h65.011v-76.289h61.68v76.289h65.007zM422.54 501.767v-26.11h64.498v-49.922h-64.498v-29.951h73.199v-52.993h-138.206v211.968h138.206v-52.993h-73.199zM624.472 342.792l-38.901 76.030h-0.257v-76.030h-65.007v211.968h96.488c16.891 0 31.223-3.071 42.997-9.214 11.774-5.889 20.73-14.336 26.617-24.834 6.139-10.498 8.956-22.27 8.956-35.327 0-14.082-3.838-26.626-11.774-37.632-7.677-11.009-18.683-18.945-33.015-23.553l45.043-81.149h-71.403l0.254-0.257zM585.314 463.113h25.851c6.142 0 11.006 1.279 14.073 4.093 3.071 3.075 4.609 7.681 4.609 13.827 0 5.63-1.538 9.982-4.863 13.053-3.071 3.075-7.677 4.867-13.82 4.867h-25.851v-35.84zM817.449 340.746c-19.449 0-37.366 4.606-53.746 14.079-16.124 9.473-29.178 22.274-38.647 38.911-9.473 16.641-14.332 35.331-14.332 56.065 0 20.737 4.86 39.424 14.332 56.065 9.469 16.641 22.522 29.438 38.647 38.657 16.378 9.473 34.295 14.079 53.746 14.079s37.366-4.606 53.49-14.079c16.124-9.217 28.919-22.017 38.388-38.657 9.473-16.641 14.332-35.327 14.332-56.065 0-20.734-4.86-39.424-14.332-56.065-9.469-16.637-22.263-29.438-38.647-38.911-16.124-9.473-34.037-14.079-53.233-14.079zM817.449 402.694c12.794 0 22.776 4.097 29.944 12.544 6.911 8.706 10.495 19.969 10.495 34.305s-3.584 26.113-10.495 34.302c-6.911 8.706-16.891 12.801-29.944 12.801s-23.033-4.354-30.201-12.801c-6.911-8.447-10.489-19.966-10.489-34.302s3.58-25.854 10.489-34.305c6.914-8.447 17.15-12.544 30.201-12.544z" />
<glyph unicode="&#xe97e;" d="M1024.019 447.997c0-281.597-227.841-511.998-511.998-511.998-284.161 0-512.002 227.841-512.002 511.998 0 284.161 227.841 511.998 512.002 511.998 284.157 0 511.998-227.837 511.998-511.998z" />
<glyph unicode="&#xe97f;" d="M701.49 291.843l23.042 143.36h-143.36v94.722c0 38.398 20.478 79.361 84.478 79.361h63.999v122.878c0 0-58.879 10.243-115.201 10.243-117.759 0-194.558-69.121-194.558-194.561v-110.078h-130.562v-143.36h130.562v-348.16c25.601-5.122 53.76-5.122 79.361-5.122 25.597 0 53.76 2.558 79.357 5.122v345.598h122.881z" />
<glyph unicode="&#xe980;" d="M536.972 883.192h-299.69c-170.702 0-237.245-66.048-237.245-236.281v-397.808c0-114.426 62.448-236.281 237.245-236.281h299.69c170.702 0 237.245 66.048 237.245 236.281v397.808c0 169.98-66.541 236.281-237.245 236.281z" />
<glyph unicode="&#xe981;" d="M461.941 478.732c51.952 0 93.926 41.981 93.926 93.434s-41.974 93.438-93.926 93.438c-51.952 0-93.926-41.984-93.926-93.438s41.974-93.434 93.926-93.434z" />
<glyph unicode="&#xe982;" d="M969.014 738.046c-20.474 10.498-63.47 22.273-121.823-18.432l-73.961-51.709c0.509-6.914 1.022-13.31 1.022-20.99v-397.808c0-7.425-1.022-13.823-1.022-20.99l73.961-51.712c30.969-21.757 57.84-28.925 79.34-28.925 18.425 0 33.014 4.863 42.483 9.982 20.474 10.498 55.023 38.91 55.023 109.82v360.69c0 71.164-34.549 99.582-55.023 109.82v0.254z" />
<glyph unicode="&#xe983;" d="M0.019 447.997c0 282.882 229.122 511.998 512.002 511.998 282.878 0 511.998-229.118 511.998-511.998 0-282.878-229.122-511.998-511.998-511.998-282.882 0-512.002 229.122-512.002 511.998z" />
<glyph unicode="&#xe984;" d="M388.387 678.665c0-34.305-29.697-61.953-66.050-61.953s-66.050 27.646-66.050 61.953c0 34.302 29.697 61.953 66.050 61.953s66.050-27.65 66.050-61.953z" />
<glyph unicode="&#xe985;" d="M264.97 571.394h113.153v-342.784h-113.153v342.784z" />
<glyph unicode="&#xe986;" d="M560.333 571.394h-113.153v-342.784h113.153v175.362c0 40.446 13.823 81.149 69.118 81.149 62.466 0 61.953-52.99 61.694-93.95-0.254-53.76 0.513-108.545 0.513-162.559h113.153v180.992c-1.025 115.454-30.977 168.701-130.049 168.701-58.882 0-95.23-26.623-114.175-50.942v44.033h-0.254z" />
<glyph unicode="&#xe987;" d="M998.37 488.959v-268.8c0-181.758-127.998-284.161-284.161-284.161h-404.479c-156.158 0-284.161 102.401-284.161 284.161v455.681c0 181.758 128.002 284.158 284.161 284.158h217.598c7.681 0 53.76 0 69.121-15.358 104.961-104.961 286.72-286.72 386.559-389.121 15.361-12.798 15.361-58.879 15.361-66.558z" />
<glyph unicode="&#xe988;" d="M537.56 307.202h-307.202c-20.478 0-38.398 17.92-38.398 38.398 0 20.482 17.92 38.402 38.398 38.402h307.202c20.478 0 38.398-17.92 38.398-38.402 0-20.478-17.92-38.398-38.398-38.398z" />
<glyph unicode="&#xe989;" d="M750.038 140.802c0-20.482-17.92-38.402-38.398-38.402h-481.281c-20.478 0-38.398 17.92-38.398 38.402 0 20.478 17.92 38.398 38.398 38.398h481.281c20.478 0 38.398-17.92 38.398-38.398z" />
<glyph unicode="&#xe98a;" d="M435.159 517.114h-204.801c-20.478 0-38.398 17.92-38.398 38.402 0 20.478 17.92 38.398 38.398 38.398h204.801c20.482 0 38.402-17.92 38.402-38.398 0-20.482-17.92-38.402-38.402-38.402z" />
<glyph unicode="&#xe98b;" d="M422.36 750.081c0-20.482-17.92-38.402-38.398-38.402h-153.603c-20.478 0-38.398 17.92-38.398 38.402 0 20.478 17.92 38.398 38.398 38.398h153.603c20.478 0 38.398-17.92 38.398-38.398z" />
<glyph unicode="&#xe98c;" d="M780.76 555.516c0-20.482-17.92-38.402-38.398-38.402h-153.603c-20.478 0-38.398 17.92-38.398 38.402 0 20.478 17.92 38.398 38.398 38.398h153.603c20.478 0 38.398-17.92 38.398-38.398z" />
<glyph unicode="&#xe98d;" d="M857.551 345.602c0-20.478-17.92-38.398-38.402-38.398h-153.599c-20.478 0-38.398 17.92-38.398 38.398 0 20.482 17.92 38.402 38.398 38.402h153.599c20.482 0 38.402-17.92 38.402-38.402z" />
<glyph unicode="&#xe98e;" d="M898.498 116.943c-435.621-201.074-705.963-32.807-879.189 69.344-10.763 6.463-28.956-1.491-13.067-19.138 57.656-67.853 246.511-231.147 493.277-231.147 246.77 0 393.598 130.737 412.050 153.353 18.193 22.619 5.38 35.047-13.071 27.591zM1020.73 182.559c-11.788 14.665-71.239 17.647-108.649 13.174-37.413-4.226-93.786-26.597-88.919-39.769 2.562-4.972 7.688-2.735 33.313-0.499 25.881 2.487 98.14 11.433 113.262-7.705 15.117-19.138-23.063-110.85-29.981-125.515-6.662-14.662 2.562-18.641 15.117-8.698s35.105 35.296 50.227 71.332c15.117 36.288 24.343 86.744 15.372 98.177l0.257-0.499z" />
<glyph unicode="&#xe98f;" d="M605.598 527.28v29.328c-100.961 0-207.561-21.124-207.561-136.449 0-58.657 31.264-98.177 84.819-98.177 39.205 0 74.31 23.611 96.607 61.642 27.417 46.975 26.135 90.965 26.135 143.658zM746.535 197.21c-9.226-7.954-22.551-8.451-33.056-3.229-46.38 37.28-54.581 54.677-80.206 90.22-76.619-75.805-130.687-98.424-230.111-98.424-117.362 0-208.844 70.34-208.844 211.015 0 109.856 61.502 184.669 148.88 221.456 75.852 32.31 181.68 38.026 262.658 46.975v17.644c0 32.314 2.562 70.34-16.914 98.177-17.168 24.855-49.714 35.292-78.411 35.292-53.302 0-100.707-26.593-112.236-81.274-2.308-12.178-11.533-24.106-24.089-24.852l-135.559 14.165c-11.275 2.487-23.83 11.436-20.755 28.334 31.264 159.32 179.372 207.288 312.367 207.288 67.905 0 156.825-17.647 210.382-67.358 67.905-61.639 61.499-143.658 61.499-232.885v-211.015c0-63.38 27.164-91.217 52.532-125.515 8.971-12.178 11.022-26.845-0.513-36.041-28.443-23.114-79.181-65.863-107.112-89.973l-0.513 0.499z" />
<glyph unicode="&#xe990;" d="M875.6 960h-656.755c11.806-17.239 18.167-37.686 18.167-59.143v-825.87h710.188v812.225c-0.011 40.142-32.134 72.788-71.601 72.788zM805.241 779.455c-3.222 1.902-8.631 3.458-16.231 4.638-13.461 2.137-23.823 6.108-31.070 11.935-7.264 5.831-10.868 14.397-10.868 25.708 0 8.204 1.993 15.297 5.964 21.238 3.96 5.94 9.487 10.479 16.573 13.645 7.086 3.15 15.181 4.73 24.315 4.73 13.57 0 24.558-3.619 32.984-10.882 8.423-7.247 13.050-17.113 13.867-29.622h-31.931c-0.599 3.691-2.182 6.484-4.734 8.386-2.581 1.899-6.090 2.856-10.54 2.856s-7.903-0.831-10.362-2.497c-2.459-1.666-3.684-3.981-3.684-6.967s1.488-5.261 4.477-6.871c2.989-1.61 8.341-3.068 16.067-4.373 13.68-2.028 24.271-6.094 31.754-12.229 7.494-6.122 11.235-14.894 11.235-26.317 0-8.454-2.049-15.712-6.143-21.781-4.097-6.064-9.802-10.645-17.12-13.727-7.319-3.096-15.591-4.638-24.819-4.638-14.866 0-26.647 3.666-35.371 10.967-8.71 7.315-13.351 17.752-13.939 31.329h32.464c0.695-8.454 6.323-12.674 16.846-12.674 4.685 0 8.369 0.861 11.060 2.581 2.674 1.724 4.039 4.015 4.039 6.874 0 3.204-1.624 5.789-4.832 7.688zM566.124 859.394h33.87l8.953-30.328 11.415-43.363 22.293 52.456h22.633l22.293-52.456 11.767 43.363 9.121 30.328h32.995v-3.745l-36.692-121.151h-26.661l-15.279 35.508-8.953 22.124-8.943-22.124-14.921-35.508h-26.689l-37.198 121.151v3.745zM474.7 859.394h80.364v-29.26h-47.738v-18.737h44.041v-28.719h-44.041v-18.379h49.133v-29.787h-81.772l0.014 124.882zM348.683 859.394h24.927l45.105-62.809-0.53 28.207v34.619h32.639v-124.896h-25.27l-44.746 62.433 0.53-32.12v-30.328h-32.653v124.896zM348.683 608.945h452.885v-44.625h-452.885v44.625zM348.683 408.428h379.744v-44.629h-379.744v44.629zM845.444 163.283h-496.761v44.625h496.761v-44.625z" />
<glyph unicode="&#xe991;" d="M193.125 900.856c0 15.796-6.064 30.632-17.038 41.808-10.934 11.132-25.447 17.267-40.871 17.336h-0.452c-31.969-0.123-57.964-27.192-57.964-60.365v-963.635h710.188v94.36h-593.863v870.497z" />
<glyph unicode="&#xe992;" d="M786.974 30.374v-94.36h-710.174v963.621c0 33.173 25.995 60.244 57.95 60.365h0.452c15.44-0.068 29.951-6.204 40.871-17.322 10.988-11.176 17.052-26.028 17.052-41.822v-870.483h593.848z" />
<glyph unicode="&#xe993;" d="M193.125 30.374h593.848v-94.36h-710.174v963.621c0 33.173 25.995 60.244 57.95 60.365h0.452c15.44-0.068 29.951-6.204 40.871-17.322 10.988-11.176 17.052-26.028 17.052-41.822v-870.483z" />
<glyph unicode="&#xe994;" d="M381.297 734.491h-32.653v124.899h24.927l45.091-62.809-0.52 28.193v34.619h32.629v-124.899h-25.256l-44.749 62.437 0.534-32.106v-30.331z" />
<glyph unicode="&#xe995;" d="M556.49 734.491h-81.772v124.899h80.378v-29.26h-47.738v-18.737h44.041v-28.723h-44.041v-18.389h49.133v-29.79z" />
<glyph unicode="&#xe996;" d="M728.382 408.428h-379.74v-44.629h379.74v44.629z" />
<glyph unicode="&#xe997;" d="M603.208 734.491l-37.202 121.151v3.749h33.854l8.957-30.328 11.412-43.363 22.293 52.467h22.636l22.293-52.467 11.751 43.363 9.121 30.328h32.995v-3.749l-36.682-121.151h-26.672l-15.264 35.508-8.957 22.127-8.939-22.127-14.924-35.508h-26.672z" />
<glyph unicode="&#xe998;" d="M801.529 608.951h-452.885v-44.629h452.885v44.629z" />
<glyph unicode="&#xe999;" d="M810.048 771.781c0 3.222-1.628 5.773-4.821 7.677-3.222 1.902-8.642 3.455-16.247 4.648-13.458 2.14-23.805 6.111-31.070 11.939-7.247 5.831-10.868 14.394-10.868 25.708 0 8.204 1.993 15.283 5.968 21.235 3.957 5.927 9.501 10.483 16.573 13.634 7.086 3.164 15.178 4.73 24.315 4.73 13.584 0 24.558-3.619 32.981-10.882 8.437-7.247 13.053-17.127 13.871-29.622h-31.931c-0.602 3.691-2.186 6.498-4.737 8.397-2.581 1.902-6.090 2.846-10.537 2.846-4.452 0-7.893-0.831-10.351-2.497-2.455-1.666-3.684-3.981-3.684-6.953s1.488-5.261 4.477-6.871c2.979-1.614 8.33-3.068 16.056-4.373 13.676-2.028 24.271-6.108 31.764-12.229 7.483-6.122 11.235-14.894 11.235-26.317 0-8.44-2.062-15.701-6.157-21.767-4.097-6.081-9.802-10.663-17.103-13.731-7.319-3.092-15.605-4.648-24.834-4.648-14.852 0-26.647 3.663-35.371 10.967-8.694 7.315-13.351 17.752-13.939 31.329h32.464c0.695-8.454 6.319-12.674 16.846-12.674 4.681 0 8.369 0.861 11.057 2.581 2.678 1.72 4.043 4.011 4.043 6.871z" />
<glyph unicode="&#xe99a;" d="M845.403 207.906h-496.761v-44.625h496.761v44.625z" />
<glyph unicode="&#xe99b;" d="M937.996 503.799l-373.155 381.952c-30.198 30.718-79.084 30.718-109.028 0l-373.151-381.952c-30.201-30.718-30.201-80.893 0-111.616l373.151-381.948c30.201-30.718 79.084-30.718 109.028 0l373.155 381.948c30.201 30.721 30.201 80.897 0 111.616z" />
<glyph unicode="&#xe99c;" d="M960.802 690.411h-897.563c-34.807 0-63.219-28.929-63.219-64.512v-358.656c0-35.583 28.156-64.512 63.219-64.512h897.563c34.807 0 63.219 28.929 63.219 64.512v358.656c0 35.583-28.152 64.512-63.219 64.512z" />
<glyph unicode="&#xe99d;" d="M184.305 564.992h100.327c32.249 0 57.584-7.168 75.755-21.247 18.174-14.336 27.386-35.327 27.386-62.977 0-27.646-9.21-48.384-27.386-61.694-17.913-13.31-43.251-19.966-75.755-19.966h-21.754v-65.791c0-2.562-1.025-4.609-2.817-6.659-1.788-1.792-3.838-2.814-6.398-2.814h-69.357c-2.558 0-4.609 1.022-6.398 2.814-1.792 1.792-2.817 4.097-2.817 6.659v222.461c0 2.558 1.025 4.609 2.817 6.655 1.788 1.792 3.838 2.817 6.398 2.817v-0.257zM261.086 500.993v-38.145h23.546c4.093 0 7.677 1.538 10.748 4.354 3.071 3.327 4.606 7.681 4.606 13.31s-1.279 10.498-3.58 14.59c-2.558 3.841-6.401 5.889-11.774 5.889h-23.546z" />
<glyph unicode="&#xe99e;" d="M473.007 564.989h72.941c8.19 0 13.053-3.841 15.102-11.265l74.987-219.649c0 0 0.254-1.792 0.254-3.327 0-1.283-0.766-2.817-2.301-4.354-1.279-1.279-3.071-2.046-5.122-2.046h-62.19c-6.655 0-11.006 2.814-13.053 8.703l-8.19 22.783h-72.432l-8.19-22.783c-2.046-5.63-6.398-8.703-13.053-8.703h-62.193c-2.046 0-3.838 0.766-5.372 2.046-1.279 1.538-2.046 3.071-2.046 4.354 0 1.535-0.003 2.814 0.254 3.327l74.987 219.649c2.049 7.681 7.168 11.265 15.099 11.265h0.513zM490.41 422.396h38.134l-19.192 63.999-18.942-63.999z" />
<glyph unicode="&#xe99f;" d="M637.329 489.209c0 23.296 9.473 42.495 28.156 57.087 19.192 14.593 44.019 22.017 74.733 22.017 30.711 0 56.304-7.681 75.755-23.039 19.708-15.361 29.69-31.489 29.69-48.13 0-2.046-0.766-3.838-2.305-5.63-1.279-1.279-2.814-2.049-4.606-2.049h-67.31c-5.119 0-9.982 2.049-14.079 5.889-4.35 3.841-9.982 5.889-17.146 5.889-10.752 0-16.124-3.33-16.124-9.726 0-3.33 2.558-6.401 7.677-8.706 5.376-2.305 15.358-4.35 29.69-6.142 33.525-4.35 57.33-12.29 71.403-24.062 14.332-11.522 21.5-28.929 21.5-52.738s-10.495-42.495-31.736-57.598c-20.988-14.593-48.114-22.017-82.155-22.017s-60.401 7.168-79.85 21.25c-19.196 14.336-28.922 31.486-28.922 51.968 0 2.046 0.77 3.838 2.049 5.119 1.535 1.538 3.327 2.305 5.372 2.305h63.985c4.606 0 9.982-2.305 15.358-6.914 5.885-4.606 13.82-6.911 23.802-6.911 16.891 0 25.338 3.327 25.338 9.726 0 4.097-3.071 7.168-9.214 9.217-6.142 2.301-17.404 4.606-34.295 6.911-57.843 7.681-86.765 33.022-86.765 75.776v0.513z" />
<glyph unicode="&#xe9a0;" d="M1024.019 662.523v-429.054c0-143.872-66.050-242.686-182.271-280.064-33.794-11.774-72.705-17.407-115.201-17.407h-429.054c-42.499 0-81.41 5.633-115.201 17.407-116.226 37.378-182.274 136.192-182.274 280.064v429.054c0 186.368 111.107 297.471 297.475 297.471h429.054c186.368 0 297.471-111.104 297.471-297.471z" />
<glyph unicode="&#xe9a1;" d="M841.755-46.595c-33.794-11.777-72.705-17.407-115.201-17.407h-429.054c-42.495 0-81.41 5.63-115.201 17.407 17.92 135.166 159.23 240.128 329.727 240.128 170.493 0 311.807-104.961 329.727-240.128z" />
<glyph unicode="&#xe9a2;" d="M695.331 469.507c0-101.377-81.919-183.809-183.296-183.809s-183.296 82.432-183.296 183.809c0 101.374 81.919 183.296 183.296 183.296s183.296-81.923 183.296-183.296z" />
<glyph unicode="&#xe9a3;" d="M1024.018 662.523v-311.807l-83.457 71.68c-39.937 34.305-104.448 34.305-144.385 0l-212.99-182.783c-39.937-34.302-104.448-34.302-144.385 0l-17.407 14.336c-36.353 31.747-94.209 34.818-135.166 7.168l-251.905-168.957-5.63-4.097c-18.945 40.959-28.675 89.6-28.675 145.405v429.053c0 186.367 111.107 297.471 297.474 297.471h429.053c186.367 0 297.471-111.104 297.471-297.471z" />
<glyph unicode="&#xe9a4;" d="M358.405 530.944c67.329 0 121.859 54.526 121.859 121.856 0 67.326-54.53 121.856-121.859 121.856-67.326 0-121.852-54.53-121.852-121.856 0-67.329 54.526-121.856 121.852-121.856z" />
<glyph unicode="&#xe9a5;" d="M1023.976 350.716v-117.25c0-186.367-111.104-297.471-297.471-297.471h-429.053c-130.562 0-224.769 54.785-268.799 152.066l5.63 4.097 251.905 168.96c40.959 27.646 98.813 24.575 135.166-7.168l17.407-14.336c39.937-34.305 104.448-34.305 144.385 0l212.993 182.783c39.933 34.302 104.445 34.302 144.381 0l83.457-71.68z" />
<glyph unicode="&#xe9a6;" d="M972.791 623.1v-350.207c0-57.344-30.464-110.591-79.618-139.776l-301.31-175.616c-49.151-28.672-110.079-28.672-159.742 0l-301.314 175.616c-49.151 28.672-79.615 81.919-79.615 139.776v350.207c0 57.344 30.464 110.595 79.615 139.776l301.314 175.616c49.151 28.672 110.079 28.672 159.742 0l301.31-175.616c49.154-29.181 79.618-81.919 79.618-139.776z" />
<glyph unicode="&#xe9a7;" d="M370.182 447.993v61.441c0 78.848 55.295 111.104 122.623 71.68l105.474-61.441c67.583-39.424 67.583-103.936 0-143.36l-105.474-61.441c-67.583-39.424-122.623-7.168-122.623 71.68v61.441z" />
<glyph unicode="&#xe9a8;" d="M230.139 716.589h94.696c20.988 0 38.392-15.615 38.392-34.557 0-18.946-17.404-34.561-38.392-34.561h-94.696c-20.988 0-38.388 15.615-38.388 34.561 0 18.942 17.4 34.557 38.388 34.557z" />
<glyph unicode="&#xe9a9;" d="M461.981 716.589h331.435c20.988 0 38.392-15.615 38.392-34.557 0-18.946-17.404-34.561-38.392-34.561h-331.435c-20.988 0-38.392 15.615-38.392 34.561 0 18.942 16.891 34.557 38.392 34.557z" />
<glyph unicode="&#xe9aa;" d="M230.139 543.342h283.322c20.984 0 38.388-15.619 38.388-34.561 0-18.946-17.404-34.561-38.388-34.561h-283.322c-20.988 0-38.388 15.615-38.388 34.561 0 18.942 17.4 34.561 38.388 34.561z" />
<glyph unicode="&#xe9ab;" d="M651.332 543.342h141.787c20.988 0 38.392-15.619 38.392-34.561 0-18.946-17.404-34.561-38.392-34.561h-141.787c-20.988 0-38.392 15.615-38.392 34.561 0 18.942 17.404 34.561 38.392 34.561z" />
<glyph unicode="&#xe9ac;" d="M297.164-12.811h429.202c186.321 0 297.654 100.069 297.654 267.703v385.685c0 168.147-111.080 268.212-297.654 268.212h-428.693c-186.318 0-297.651-100.065-297.651-267.7v-385.944c-0.513-167.631 110.563-267.7 297.143-267.7v-0.257z" />
<glyph unicode="&#xe9ad;" d="M512.021-64.002c282.878 0 511.998 229.122 511.998 511.998 0 282.882-229.122 511.998-511.998 511.998-282.882 0-512.002-229.118-512.002-511.998 0-282.878 229.122-511.998 512.002-511.998z" />
<glyph unicode="&#xe9ae;" d="M523.511 755.194c58.415 0 105.089-16.107 140.026-48.323 35.507-32.216 53.261-76.225 53.261-132.027 0-58.103-18.328-101.825-54.981-131.164-36.65-29.339-85.332-44.011-146.037-44.011l-1.72-34.134c-0.964-19.066-16.705-34.034-35.796-34.034h-16.247c-19.35 0-35.21 15.361-35.822 34.704l-2.298 72.439c-0.492 15.501 11.942 28.334 27.454 28.334 55.552 0 97.933 7.476 127.139 22.435 29.783 14.955 44.67 43.431 44.67 85.428 0 30.488-8.878 54.362-26.63 71.622-17.181 17.257-41.233 25.888-72.159 25.888s-55.268-8.344-73.020-25.023c-10.017-9.415-17.209-20.933-21.576-34.561-6.039-18.847-21.103-35.338-40.897-35.338h-20.239c-19.794 0-36.256 16.175-32.861 35.675 3.559 20.426 10.297 39.308 20.218 56.66 15.461 27.037 37.509 48.036 66.146 62.993 29.209 14.955 63 22.435 101.37 22.435zM468.534 140.795c-17.755 0-32.646 6.043-44.674 18.125-12.024 12.078-18.039 27.037-18.039 44.872s6.015 32.79 18.039 44.872c12.028 12.078 26.92 18.121 44.674 18.121 17.178 0 31.783-6.043 43.811-18.121 12.028-12.082 18.039-27.037 18.039-44.872s-6.009-32.793-18.039-44.872c-12.028-12.082-26.633-18.125-43.811-18.125z" />
<glyph unicode="&#xe9af;" glyph-name="press-release" d="M193.256 900.86c0 15.874-6.143 30.721-17.15 41.729-11.002 11.009-25.335 17.154-40.947 17.407h-0.513c-31.99 0-57.839-27.134-57.839-60.415v-963.585h709.938v94.463h-593.748v870.401h0.257zM875.497 959.997h-656.447c11.771-17.15 18.17-37.632 18.17-59.136v-825.856h709.934v812.29c0 40.191-31.99 72.702-71.659 72.702zM360.322 850.684h249.526v-126.207h-249.526v126.207zM338.312 609.023h418.182v-44.546h-418.182v44.546zM580.161 163.325h-241.849v44.543h241.849v-44.543zM779.525 363.772h-441.212v44.546h441.212v-44.546z" />
<glyph unicode="&#xe9b0;" d="M1024.019 447.986c0-13.057-0.513-26.11-1.538-38.654-13.823-184.833-125.693-342.275-283.902-420.353-16.385-8.193-33.281-15.361-50.689-21.761-54.785-20.221-114.175-30.973-175.869-30.973-282.882 0-512.002 229.118-512.002 511.998 0 282.878 229.122 511.998 512.002 511.998 249.341 0 457.213-178.433 502.781-414.464 6.146-31.489 9.217-64.258 9.217-97.534v-0.257z" />
<glyph unicode="&#xe9b1;" d="M757.231 582.65l-29.181 80.386c-6.146 15.358-8.96 28.672-19.712 39.424-13.823 6.655-27.137 5.119-43.778 6.142l-85.503 1.792c-12.031-1.538-29.185 3.584-48.384-21.761l-261.885-366.077c-9.473-13.314-6.401-31.747 6.911-41.216l173.57-123.905c13.31-9.473 31.743-6.401 41.216 6.914l261.885 366.080c17.92 26.367 7.425 40.959 5.122 52.734l-0.257-0.513zM620.785 580.091c-15.874 11.518-19.712 33.535-8.193 49.663 11.522 15.871 33.535 19.712 49.663 8.193 15.874-11.522 19.712-33.539 8.193-49.667-11.518-15.871-33.535-19.712-49.663-8.19z" />
<glyph unicode="&#xe9b2;" d="M289.362 183.294c0-29.185-30.091-52.993-66.902-52.993s-66.899 23.809-66.899 52.993c0 29.185 30.088 52.993 66.899 52.993s66.902-23.809 66.902-52.993z" />
<glyph unicode="&#xe9b3;" d="M289.362 447.997c0-29.181-30.091-52.99-66.902-52.99s-66.899 23.809-66.899 52.99c0 29.185 30.088 52.993 66.899 52.993s66.902-23.809 66.902-52.993z" />
<glyph unicode="&#xe9b4;" d="M289.362 712.702c0-28.929-30.091-52.993-66.902-52.993s-66.899 24.062-66.899 52.993c0 28.926 30.088 52.993 66.899 52.993s66.902-23.809 66.902-52.993z" />
<glyph unicode="&#xe9b5;" d="M868.442 183.301c0-19.458-19.845-35.327-44.495-35.327h-401.085c-24.647 0-44.492 15.871-44.492 35.327s19.845 35.327 44.492 35.327h401.085c24.65 0 44.495-15.874 44.495-35.327z" />
<glyph unicode="&#xe9b6;" d="M868.442 447.986c0-19.455-19.845-35.327-44.495-35.327h-401.085c-24.647 0-44.492 15.874-44.492 35.327 0 19.458 19.845 35.331 44.492 35.331h401.085c24.65 0 44.495-15.874 44.495-35.331z" />
<glyph unicode="&#xe9b7;" d="M378.020 712.709c0 19.455 19.848 35.327 44.495 35.327h401.085c24.647 0 44.492-15.874 44.492-35.327 0-19.458-19.845-35.327-44.492-35.327h-401.085c-24.647 0-44.495 15.871-44.495 35.327z" />
<glyph unicode="&#xe9b8;" d="M935.033 959.994h-846.022c-48.975 0-88.991-31.743-88.991-70.654v-882.686c0-38.911 40.015-70.654 88.991-70.654h846.022c48.975 0 88.987 31.743 88.987 70.654v882.686c0 38.911-40.012 70.654-88.987 70.654zM823.635 412.669h-400.761c-24.647 0-44.495 15.874-44.495 35.327 0 19.458 19.848 35.327 44.495 35.327h400.761c24.65 0 44.495-15.871 44.495-35.327s-19.845-35.327-44.495-35.327zM868.131 183.039c0-19.458-19.845-35.327-44.495-35.327h-400.761c-24.647 0-44.495 15.871-44.495 35.327s19.848 35.327 44.495 35.327h400.761c24.65 0 44.495-15.874 44.495-35.327zM823.635 677.372h-400.761c-24.647 0-44.495 15.874-44.495 35.327 0 19.458 19.848 35.331 44.495 35.331h400.761c24.65 0 44.495-15.874 44.495-35.331 0-19.455-19.845-35.327-44.495-35.327zM222.49 659.709c-36.811 0-66.899 23.809-66.899 52.99 0 29.185 30.088 52.993 66.899 52.993s66.902-23.809 66.902-52.993c0-29.181-30.091-52.99-66.902-52.99zM289.392 447.743c0-29.185-30.091-52.993-66.902-52.993s-66.899 23.809-66.899 52.993c0 29.185 30.088 52.993 66.899 52.993s66.902-23.809 66.902-52.993zM222.49 235.775c36.811 0 66.902-23.809 66.902-52.993s-30.091-52.99-66.902-52.99c-36.811 0-66.899 23.805-66.899 52.99s30.088 52.993 66.899 52.993z" />
<glyph unicode="&#xe9b9;" d="M1010.752 948.511c-33.789 33.776-257.519-8.702-413.669-106.71-112.376-70.375-191.478-168.383-228.336-220.588l-174.326 27.893c-12.543 3.838-27.391-1.279-37.376-13.052l-150.006-233.637c-13.569-18.937-6.655-43.504 13.31-47.601h200.949c16.127 0 31.741-6.398 43.259-17.912l136.441-136.399c11.518-11.514 17.919-26.868 17.919-43.245v-200.886c4.093-19.958 28.67-26.868 47.611-13.306l233.715 149.96c11.773 9.981 16.636 24.82 12.797 37.36l-27.904 176.83c53.757 37.616 154.36 116.691 222.451 224.168 102.391 161.475 138.488 381.809 103.16 417.123zM820.556 645.521c-31.488-31.218-82.173-31.218-113.655 0-31.232 31.477-31.232 82.147 0 113.624 31.484 31.218 82.17 31.218 113.655 0 31.229-31.477 31.229-82.147 0-113.624z" />
<glyph unicode="&#xe9ba;" d="M1010.817 948.511c-33.792 33.776-257.519-8.702-413.669-106.71-112.38-70.375-191.478-168.383-228.34-220.588l316.398-313.993c53.757 37.616 154.356 116.691 222.448 224.168 102.395 161.475 138.488 381.809 103.163 417.123zM820.621 645.521c-31.488-31.218-82.173-31.218-113.659 0-31.229 31.477-31.229 82.147 0 113.624 31.488 31.218 82.173 31.218 113.659 0 31.229-31.477 31.229-82.147 0-113.624z" />
<glyph unicode="&#xe9bb;" d="M216.422 152.645c-30.208 30.196-27.645 84.191 2.817 131.79 1.279 2.046-1.538 4.35-3.33 2.814-1.792-1.535-3.584-3.327-5.118-4.859-52.99-52.976-65.533-126.164-28.416-163.267 37.117-37.106 110.584-24.567 163.316 28.404 1.792 1.788 3.33 3.327 4.866 5.118 1.792 1.792-0.513 4.606-2.817 3.327-47.615-30.452-101.371-33.010-131.833-2.814l0.513-0.513z" />
<glyph unicode="&#xe9bc;" d="M102.754 39.042c-48.124 48.108-44.027 133.837 4.354 209.329 2.046 3.327-2.305 6.91-5.122 4.35s-5.629-5.118-8.193-7.934c-84.219-84.191-104.183-200.373-45.051-259.742 59.386-59.369 175.605-39.152 259.824 45.040 2.817 2.814 5.376 5.372 7.934 8.189 2.817 2.814-1.025 7.418-4.35 5.118-75.517-48.108-161.27-52.46-209.397-4.35z" />
<glyph unicode="&#xe9bd;" d="M730.213 608.628c-20.226 0-36.359 15.872-36.359 35.836v65.53c0 50.17-21.764 98.292-59.402 132.080-38.664 34.298-88.078 50.17-140.311 45.561-87.565-8.193-164.125-95.732-164.125-186.86v-46.074c0-19.964-16.13-35.836-36.356-35.836-20.229 0-36.359 15.872-36.359 35.836v46.074c0 127.988 105.233 246.246 229.928 258.019 72.461 6.655 142.362-15.869 195.873-63.992 53.259-47.099 83.473-114.675 83.473-184.809v-65.53c0-19.964-16.133-35.836-35.846-35.836h-0.513z" />
<glyph unicode="&#xe9be;" d="M377.277 440.203c0-28.156-23.3-51.196-51.976-51.196h-0.513c-28.676 0-52.232 23.040-52.232 51.196s23.556 51.192 52.232 51.192c28.679 0 52.489-23.036 52.489-51.192z" />
<glyph unicode="&#xe9bf;" d="M742.15 440.203c0-28.156-23.3-51.196-51.98-51.196h-0.509c-28.679 0-52.235 23.040-52.235 51.196s23.556 51.192 52.235 51.192c28.676 0 52.489-23.036 52.489-51.192z" />
<glyph unicode="&#xe9c0;" d="M926.822 603.514c-43.784 47.612-115.732 70.647-220.969 70.647h-387.651c-105.233 0-177.18-23.036-220.965-70.647-50.44-55.292-48.905-129.010-43.273-180.205l36.359-285.15c11.008-99.828 52.232-202.22 276.269-202.22h290.866c224.040 0 265.261 102.39 276.275 201.707l36.359 286.175c5.629 50.683 6.655 124.401-43.273 179.693zM325.373 389.011h-0.513c-28.676 0-52.235 23.040-52.235 51.196s23.559 51.192 52.235 51.192c28.676 0 52.748-23.036 52.748-51.192s-23.559-51.196-52.235-51.196zM690.237 389.011h-0.513c-28.676 0-52.235 23.040-52.235 51.196s23.559 51.192 52.235 51.192c28.676 0 52.743-23.036 52.743-51.192s-23.556-51.196-52.232-51.196z" />
<glyph unicode="&#xe9c1;" d="M767.808 959.871h-511.871c-141.277 0-255.937-114.147-255.937-254.911v-357.543c0-140.764 114.66-254.911 255.937-254.911h77.038c13.82 0 32.249-9.469 40.693-20.475l77.038-102.119c34.037-45.043 88.807-45.043 122.848 0l76.525 102.119c9.982 12.54 25.081 20.475 40.946 20.475h77.038c141.277 0 255.937 114.147 255.937 254.911v357.543c0 140.764-114.66 254.911-255.937 254.911h-0.254zM279.996 286.25c-1.792-1.279-3.33-2.558-4.863-3.838l-107.236-40.696c0 0-2.305-0.509-3.584-0.509-2.046 0-3.838 0.509-5.63 1.535-2.558 1.792-4.093 4.606-4.35 7.934l-6.911 114.66c0 2.046 0.766 4.093 1.538 6.142l303.281 457.356c8.703 13.82 26.873 17.657 40.696 8.703l98.276-63.731 2.817-13.82-313.777-473.736h-0.254zM855.591 241.207h-511.614l49.14 76.779h462.474c20.988 0 38.391-17.15 38.391-38.391s-17.146-38.388-38.391-38.388z" />
<glyph unicode="&#xe9c2;" d="M593.773 759.978l-313.777-473.736c-1.792-1.279-3.327-2.558-4.863-3.838l-107.236-40.693c0 0-2.305-0.513-3.584-0.513-2.046 0-3.838 0.513-5.63 1.535-2.558 1.792-4.093 4.609-4.35 7.934l-6.911 114.66c0 2.046 0.766 4.097 1.538 6.142l303.281 457.356c8.703 13.82 26.876 17.657 40.696 8.703l98.276-63.726 2.817-13.823h-0.254z" />
<glyph unicode="&#xe9c3;" d="M893.706 279.337c0-20.984-17.15-38.388-38.391-38.388h-511.614l49.14 76.779h462.474c20.988 0 38.391-17.15 38.391-38.391z" />
<glyph unicode="&#xe9c4;" d="M870.399 704.001v-57.857c-16.382 4.606-33.281 6.655-51.201 6.655h-614.396c-17.92 0-34.818-2.049-51.201-6.655v57.857c0 56.318 46.079 102.397 102.397 102.397h512.001c56.318 0 102.397-46.079 102.397-102.397z" />
<glyph unicode="&#xe9c5;" d="M716.851 882.684v-76.289h-409.6v76.289c0 42.495 34.814 77.309 77.313 77.309h254.972c42.499 0 77.313-34.814 77.313-77.309z" />
<glyph unicode="&#xe9c6;" d="M1024.018 448.003v-307.201c0-112.638-92.162-204.796-204.8-204.796h-614.4c-112.638 0-204.8 92.158-204.8 204.796v307.201c0 94.718 65.537 175.103 153.602 198.141 16.382 4.609 33.278 6.659 51.198 6.659h614.4c17.92 0 34.814-2.049 51.201-6.659 88.061-23.039 153.599-103.423 153.599-198.141z" />
<glyph unicode="&#xe9c7;" d="M306.078 316.103v0.77c0 0-1.542 2.049-2.308 3.075-0.516 1.025-1.029 1.795-1.542 2.562-1.025 1.795-2.049 3.334-3.078 4.87-0.513 0.77-1.025 1.538-1.538 2.308-0.257 0.513-0.513 0.766-0.77 1.279-1.025 1.538-2.049 2.821-2.821 4.357-0.77 1.025-1.283 1.795-1.795 2.821-1.283 1.792-2.308 3.846-3.591 5.638-0.254 0.77-0.766 1.538-1.283 2.308-1.279 2.049-2.562 4.1-3.846 6.408-0.257 0.513-0.513 0.77-0.77 1.283-1.538 2.817-3.075 5.638-4.616 8.2 0 0-0.086 0.171-0.254 0.513 0 0-0.513 1.025-0.77 1.283-1.538 2.821-2.821 5.383-4.361 7.945-0.254 0.513-0.513 0.77-0.513 1.283-1.538 2.817-3.078 5.896-4.616 8.713-0.254 0.513-0.513 1.025-0.77 1.795h-0.254c-1.025 2.562-2.054 4.87-3.334 7.175 0 0.257-0.003 0.513-0.257 0.513-0.257 1.029-0.77 1.795-1.025 2.565-1.029 2.049-2.054 4.1-2.824 6.149-0.513 1.025-1.025 2.049-1.279 3.075-1.029 2.054-2.054 4.357-2.824 6.408-0.254 0.513-0.513 1.025-0.513 1.283-0.254 0.77-0.513 1.283-0.766 1.795-1.029 2.562-2.054 4.87-2.824 7.434-0.254 0.513-0.513 0.766-0.513 1.279h-0.254c-1.029 3.078-1.795 5.642-2.821 8.458 0 0 0 0.257 0 0.513-0.257 0.77-0.516 1.542-0.77 2.308-0.77 2.049-1.283 4.1-2.054 6.153 0 1.025-0.513 2.049-1.025 3.075-0.513 2.049-1.025 4.1-1.795 6.149-0.254 0.77-0.513 1.795-0.77 2.821-0.513 2.562-1.279 4.87-1.792 7.178 0 0-0.516 1.792-0.516 2.305-0.766 2.821-1.538 5.642-2.049 8.204 0 0.77 0 1.283 0 1.795-0.513 2.305-1.025 4.867-1.542 7.175 0 1.025 0 1.795-0.513 2.562-0.254 2.308-0.513 4.357-1.025 6.408 0 1.025 0 2.054 0 2.821-0.513 2.308-0.77 4.613-1.025 6.666 0 0.766 0 1.279-0.257 2.049v0.513c0 2.562-0.513 5.126-0.766 7.434v2.049c-0.257 1.795-0.257 3.587-0.516 5.383v2.049c-0.254 2.049-0.254 4.1-0.254 6.153v16.145c0 0 0 1.795 0.254 2.565 0 1.792 0 3.33 0.257 4.867v2.821c0.257 1.538 0.257 3.334 0.513 4.87 0 0.77 0 1.538 0.257 2.562 0 1.795 0 3.591 0.513 5.642 0 0.513 0.254 1.025 0.254 1.538 0.257 2.562 0.77 7.175 1.029 9.74 0 0.513 69.762 34.603 69.762 34.603-4.874-18.97-3.846-54.598-3.334-66.132 1.538-32.811 9.746-65.364 22.055-95.868 10.003-24.862 22.571-48.445 36.934-71.256 4.104-6.408 14.619-24.353 19.239-31.274-30.522-10.253-67.2-24.349-71.561-26.145h-0.766z" />
<glyph unicode="&#xe9c8;" d="M845.417 640.105c-8.207 25.891-15.132 50.498-20.519 73.311 31.804 4.357 65.658-22.557 78.741-64.081 12.824-41.011 1.283-82.024-26.162-97.917-11.028 26.658-21.801 56.393-32.058 88.69z" />
<glyph unicode="&#xe9c9;" d="M990.824 335.588c-15.645-5.638-99.771-16.662-99.771-16.662-14.107 15.125-28.983 36.144-44.373 63.568-30.263 54.085-61.81 129.96-88.485 213.777-27.701 87.918-45.652 170.712-50.015 233.256-2.049 26.658-1.538 48.961 1.538 67.415l85.155 58.185c-26.418-21.021-24.626-109.192 4.357-229.923 7.182-30.761 16.415-63.568 27.443-97.917 13.594-43.319 28.213-83.048 43.090-118.679 43.86-105.605 89.768-173.020 121.059-173.020z" />
<glyph unicode="&#xe9ca;" d="M344.993-31.232c-31.804 82.794-67.2 220.182-84.127 327.329-0.513 3.587-1.029 6.921-1.542 10.253v0.254l46.168 8.97c0 0 0.513 0 0.513 0.257 0 0 0 0.513 0 0.766-0.77 1.025-1.538 2.049-2.054 3.078-0.513 0.766-1.025 1.792-1.795 2.562-1.025 1.538-2.049 3.075-3.075 4.613-0.513 0.77-1.029 1.538-1.542 2.308-0.254 0.513-0.513 0.766-0.766 1.279-1.029 1.542-1.795 2.821-2.824 4.357-0.513 1.025-1.279 1.795-1.792 2.821-1.283 1.795-2.312 3.846-3.591 5.638-0.516 0.77-1.029 1.542-1.283 2.308-1.283 2.049-2.565 4.357-3.85 6.408-0.254 0.513-0.513 1.025-0.766 1.538-1.542 2.821-3.078 5.383-4.616 8.204 0 0-0.003 0.254-0.257 0.513 0 0.513-0.513 1.025-0.77 1.279-1.538 2.565-2.821 5.383-4.357 7.948 0 0.254-0.513 0.766-0.513 1.025-1.542 2.817-3.078 5.896-4.62 8.713-0.254 0.513-0.513 1.025-0.766 1.538 0 0 0 0 0 0.257-1.029 2.308-2.308 4.613-3.337 6.921 0 0 0 0.513-0.254 0.513-0.257 0.77-0.77 1.538-1.025 2.562-1.029 2.049-1.795 4.104-2.824 6.153-0.513 1.025-0.766 2.049-1.279 3.075-1.029 2.049-1.795 4.357-2.824 6.408 0 0.513-0.513 1.025-0.513 1.283 0 0.513-0.513 1.279-0.766 1.792-1.029 2.562-2.054 4.87-2.824 7.434 0 0.257-0.254 0.77-0.513 1.283 0 0 0 0 0 0.254-1.025 2.821-2.049 5.383-3.078 8.204 0 0 0 0.257 0 0.513-0.254 0.77-0.513 1.538-0.766 2.562-0.77 2.049-1.283 4.104-2.054 6.153-0.254 1.025-0.766 2.049-1.025 3.075-0.513 2.049-1.283 4.1-1.795 5.896-0.257 1.025-0.513 1.795-0.77 2.821-0.513 2.305-1.279 4.613-1.795 6.921 0 0 0 0.254 0 0.513 0 0.766-0.254 1.279-0.513 2.049-0.766 2.821-1.283 5.638-1.795 8.204 0 0.513 0 1.025-0.254 1.538-0.513 2.562-1.029 4.87-1.542 7.434 0 0.766-0.254 1.792-0.513 2.562-0.254 2.049-0.766 4.357-1.025 6.408 0 1.025-0.257 1.795-0.513 2.821-0.257 2.305-0.513 4.357-0.77 6.662 0 0.513 0 1.283 0 1.795 0 0 0 0.513 0 0.766-0.254 2.565-0.513 4.87-0.77 7.434 0 0.516 0 1.283 0 1.795 0 1.795-0.254 3.587-0.254 5.383 0 0.77 0 1.283 0 2.049 0 2.049 0 4.104 0 6.153 0 0.513 0 1.025 0 1.279 0 2.049 0 4.104 0 6.153v1.279c0 0 0 1.538 0 2.308 0 1.538 0 3.334 0 4.87 0 1.025 0 1.795 0 2.821 0 1.538 0 3.075 0 4.87 0 1.025 0 1.792 0 2.817 0 1.538 0.254 3.334 0.513 4.87 0 0.77 0 1.538 0 2.562 0 1.795 0.513 3.846 0.513 5.642 0 0.513 0 1.279 0 1.792 0.257 2.565 0.77 5.129 1.025 7.434 0 0.516 0 0.77-0.513 0.77h-0.254l-1.029-0.513-4.104-1.538-158.505-64.594c-7.182-2.821-13.594-6.408-19.747-9.996-17.444-11.025-30.009-25.119-38.474-41.527-1.283-2.305-2.308-4.613-3.334-6.921 0 0 0-0.254 0-0.513-0.513-1.538-1.283-3.075-1.795-4.357 0-0.254 0-0.766-0.257-1.025-0.513-1.279-1.025-2.562-1.283-4.1 0-0.513-0.254-1.025-0.513-1.538-0.254-1.025-0.766-2.308-1.025-3.587 0-0.77-0.254-1.283-0.513-2.054-0.257-1.025-0.513-2.049-0.77-3.33 0-0.257 0-0.513 0-0.77 0-0.766-0.254-1.538-0.513-2.049 0-0.513 0-0.77 0-1.283 0-1.538-0.513-2.817-0.513-4.354 0-0.516 0-1.029 0-1.283 0-1.025 0-2.049-0.257-3.334 0-0.513 0-1.025 0-1.538 0-1.283 0-2.562 0-3.846 0 0 0-0.513 0-0.766 0-1.538 0-2.821 0-4.357v-1.538c0 0 0-2.308 0-3.334 0-0.513 0-0.77 0-1.283 0-1.538 0-3.075 0.257-4.613 0-0.257 0-0.513 0-0.77 0-1.279 0-2.562 0.513-3.841 0-0.513 0-1.025 0-1.283 0-1.283 0.257-2.562 0.513-3.846 0-0.254 0-0.513 0-0.766 0.257-1.538 0.513-3.078 0.77-4.616 0-0.513 0-0.766 0.257-1.279 0-1.283 0.513-2.308 0.766-3.591 0-0.513 0-1.025 0.257-1.538 0.254-1.279 0.766-2.562 1.025-4.1 0 0 0-0.257 0-0.513 1.025-3.075 2.054-6.408 3.078-9.483 1.538-4.104 3.078-7.945 4.87-11.791 3.337-6.666 6.928-13.074 11.286-18.97 0 0 1.029-1.279 1.542-2.049 0.513-0.766 1.025-1.538 1.795-2.305 0 0 0-0.003 0-0.257 1.025-1.283 2.308-2.821 3.334-4.1 0.513-0.513 0.77-1.025 1.283-1.283 1.025-1.025 2.049-2.308 3.078-3.334 2.049-2.049 3.846-3.841 6.153-5.638 0.513-0.513 1.283-1.025 2.054-1.538 0.254 0 0.513-0.513 0.766-0.77 0 0 0 0 0.257-0.254 0.77-0.77 1.538-1.283 2.308-1.795 1.025-0.77 2.049-1.538 3.078-2.049 0.766-0.513 1.279-1.025 2.049-1.283 0.77-0.513 1.795-1.025 2.565-1.792 0.254 0 0.77-0.513 1.025-0.77 0.77-0.513 1.283-0.766 2.054-1.283 1.025-0.513 2.049-1.279 3.334-1.792 0 0 0.254 0 0.513 0 0.513 0 0.77-0.513 1.283-0.513 0.513-0.257 1.025-0.513 1.795-0.77 0.513-0.254 1.025-0.513 1.795-0.766 0 0 0 0 0.254 0 1.029-0.513 2.054-1.025 3.078-1.283 0.513 0 1.283-0.513 1.795-0.766 1.283-0.516 2.308-1.029 3.591-1.283 0.513 0 1.025-0.257 1.538-0.513 0 0 0.257 0 0.513 0 0 0 0 0 0.257 0h0.513c0.257 0 0.513 0 0.77-0.257 0.254 0 0.766 0 1.025-0.254 0.257 0 0.513 0 0.77 0 1.025-0.257 2.049-0.513 2.821-0.77 0.257 0 0.513 0 0.77 0 0.513 0 1.279-0.254 1.795-0.513 0.513 0 1.279-0.254 1.795-0.513 0 0 0.513 0 0.766 0 0.513 0 0.77 0 1.283 0s0.77 0 1.283 0h0.513c0.77 0 1.283 0 2.054-0.254 0.513 0 1.279 0 1.792-0.257 0 0 0.257 0 0.516 0 0.254 0 0.766 0 1.025 0 0 0 0.513 0 0.77 0 0.513 0 1.025 0 1.538 0 1.025 0 2.049 0 3.078 0 0.513 0 1.025 0 1.538 0s1.025 0 1.538 0c1.283 0 2.824 0 4.104 0 1.029 0 1.795 0 2.824 0 0.513 0 1.279 0 1.795 0 0.513 0 1.025 0 1.538 0 0.257 0 0.513 0 0.77 0 0.513 0 0.766 0 1.279 0 0.516 0 1.029 0 1.795 0 0 0 0 0 0.257 0 0 0 0.257 0 0.513 0 0.513 0 1.283 0 2.054 0 0.254 0 0.513 0 1.025 0s0.77 0 1.283 0c0.513 0 1.283 0 1.795 0.257 0.513 0 0.766 0 1.279 0 0.77 0 1.795 0.254 2.565 0.513 1.025 0 2.054 0.254 3.078 0.513l4.874 1.025c0.513-1.795 0.766-3.587 1.279-5.383 19.239-73.823 66.946-213.007 117.727-326.046 5.386-12.049 14.877-18.713 23.854-17.174l57.706 9.737c0 0 2.308 0.513 3.078 1.283 5.645 3.587 7.954 13.841 4.361 22.813l-0.513-1.279z" />
<glyph unicode="&#xe9cb;" d="M846.623 382.473c-30.263 53.828-61.813 129.701-88.485 213.777-27.958 87.918-45.652 170.712-50.272 233.256-2.049 27.17-1.279 50.241 1.795 68.694-29.239-26.911-62.067-56.649-87.715-76.385-102.082-78.177-209.547-148.667-319.58-215.056-4.616-18.966-3.846-54.598-3.334-66.132 1.538-33.066 9.746-65.364 22.055-95.868 10.003-24.862 22.571-48.445 36.934-71.256 4.361-6.921 14.877-24.608 19.493-31.274 117.472 3.846 234.17 3.334 352.151-4.354 53.863-3.846 107.981-11.279 161.33-18.97-14.107 15.125-28.983 36.398-44.373 63.827v-0.257z" />
<glyph unicode="&#xe9cc;" d="M975.678 675.977c-57.197 179.682-132.858 296.312-173.895 282.984-33.343-11.025-33.857-103.556-2.565-233.769 7.441-30.761 16.415-63.568 27.447-97.917 13.59-43.062 28.213-83.051 43.087-118.679 46.937-112.785 96.183-181.99 127.471-171.737 41.041 13.583 35.654 159.433-21.544 339.12zM877.703 551.402c-11.028 26.658-22.059 56.649-32.317 88.69-8.207 25.632-15.136 50.241-20.519 73.311 31.804 4.357 65.913-22.557 78.995-64.34 12.824-40.757 1.025-82.024-26.159-97.914v0.254z" />
<glyph unicode="&#xe9cd;" d="M219.891 492.653c0 15.612 12.798 28.409 28.409 28.409h89.066c15.612 0 28.406-12.798 28.406-28.409v-309.17c0-15.612-12.794-28.409-28.406-28.409h-89.066c-15.612 0-28.409 12.798-28.409 28.409v309.17z" />
<glyph unicode="&#xe9ce;" d="M437.102 706.366c0 18.942 15.354 34.041 34.037 34.041h79.85c18.942 0 34.041-15.358 34.041-34.041v-515.707c0-18.942-15.358-34.041-34.041-34.041h-79.85c-18.938 0-34.037 15.358-34.037 34.041v515.707z" />
<glyph unicode="&#xe9cf;" d="M654.169 347.025c0 18.938 15.358 34.037 34.041 34.037h79.85c18.938 0 34.037-15.354 34.037-34.037v-156.376c0-18.942-15.354-34.041-34.037-34.041h-79.85c-18.942 0-34.041 15.358-34.041 34.041v156.376z" />
<glyph unicode="&#xe9d0;" d="M914.22 959.994h-804.4c-60.658 0-109.8-49.136-109.8-109.795v-804.404c0-60.655 49.14-109.795 109.8-109.795h804.4c60.658 0 109.8 49.14 109.8 109.795v804.404c0 60.658-49.14 109.795-109.8 109.795zM365.751 192.189c0-20.218-16.378-36.596-36.596-36.596h-73.199c-20.218 0-36.599 16.378-36.599 36.596v292.536c0 20.218 16.382 36.596 36.599 36.596h73.199c20.218 0 36.596-16.378 36.596-36.596v-292.536zM585.088 192.189c0-20.218-16.378-36.596-36.596-36.596h-73.199c-20.218 0-36.599 16.378-36.599 36.596v511.871c0 20.218 16.382 36.596 36.599 36.596h73.199c20.218 0 36.596-16.378 36.596-36.596v-511.871zM804.424 192.189c0-20.218-16.378-36.596-36.596-36.596h-73.199c-20.218 0-36.599 16.378-36.599 36.596v146.14c0 20.218 16.382 36.599 36.599 36.599h73.199c20.218 0 36.596-16.382 36.596-36.599v-146.14z" />
<glyph unicode="&#xe9d1;" d="M512.021-64.002c282.878 0 511.998 229.122 511.998 511.998 0 282.882-229.122 511.998-511.998 511.998-282.882 0-512.002-229.118-512.002-511.998 0-282.878 229.122-511.998 512.002-511.998z" />
<glyph unicode="&#xe9d2;" d="M250.881 544.252c-11.518 0-22.529-4.606-30.721-12.798-8.19-8.193-12.798-19.199-12.798-30.721v-231.168c0-11.774 4.609-22.526 12.798-30.718 8.193-8.193 19.203-12.798 30.721-12.798h43.262v318.205h-43.262zM814.081 516.605c-2.562 9.726-7.425 18.686-13.823 26.626-6.659 7.677-14.593 14.079-23.809 18.429-9.217 4.609-18.945 6.914-29.697 7.425h-169.473v104.961c0 9.469-2.046 18.429-5.63 27.134-3.841 8.706-9.217 16.382-15.874 23.042-6.911 6.398-14.849 11.261-23.55 14.845-8.96 3.33-18.177 4.609-26.626 4.354-11.774 0-23.55-2.817-34.048-8.447-10.495-5.889-19.199-14.336-25.342-24.321l-100.865-161.026v-323.581h1.538l29.181-14.593c15.106-7.681 31.747-11.518 48.641-11.518h285.953c17.407 0 34.048 6.401 47.101 17.92 13.057 11.518 21.25 27.393 23.553 44.033l34.814 224.509c1.538 10.243 0.766 20.225-2.046 30.21z" />
<glyph unicode="&#xe9d3;" d="M223.177 601.762l128.752-2.715v141.743c0 36.839 47.311 81.438 105.093 81.438s26.177-228.415 89.194-228.415c63.016 0 97.145-28.892 97.145-63.016v-394.006c0-34.127-28.892-63.019-63.016-63.019h-359.685c-99.86 0-220.66 76.204-220.66 265.257 2.715 186.531 120.8 262.54 223.178 262.54v0.192z" />
<glyph unicode="&#xe9d4;" d="M643.373 113.332h301.902c49.832 91.908 78.724 199.524 78.724 312.568 0 39.362-2.715 78.724-10.47 115.563h-370.351v-428.131h0.195z" />
<glyph unicode="&#xe9d5;" d="M774.656 197.476c0-20.94-18.422-39.362-39.362-39.362s-39.362 18.422-39.362 39.362c0 20.943 18.422 39.362 39.362 39.362 23.655 0 39.362-15.704 39.362-39.362z" />
<glyph unicode="&#xe9d6;" d="M77.438 264.704l251.187-251.392c103.083-103.169 270.623-103.169 374.219 0l243.51 243.711c103.087 103.166 103.087 270.845 0 374.527l-251.697 250.879c-52.692 52.734-125.336 81.153-199.513 77.056l-277.28-13.314c-111.011-5.119-199.004-93.184-204.632-203.775l-13.3-277.502c-3.327-75.010 25.067-147.714 77.504-200.45v0.257z" />
<glyph unicode="&#xe9d7;" d="M372.923 427.009c88.249 0 159.614 71.68 159.614 159.745 0 88.062-71.622 159.741-159.614 159.741s-159.614-71.68-159.614-159.741c0-88.065 71.622-159.745 159.614-159.745z" />
<glyph unicode="&#xe9d8;" d="M937.996 503.799l-373.155 381.952c-30.198 30.718-79.084 30.718-109.028 0l-373.151-381.952c-30.201-30.718-30.201-80.893 0-111.616l373.151-381.948c30.201-30.718 79.084-30.718 109.028 0l373.155 381.948c30.201 30.721 30.201 80.897 0 111.616z" />
<glyph unicode="&#xe9d9;" d="M960.802 690.411h-897.563c-34.807 0-63.219-28.929-63.219-64.512v-358.656c0-35.583 28.156-64.512 63.219-64.512h897.563c34.807 0 63.219 28.929 63.219 64.512v358.656c0 35.583-28.152 64.512-63.219 64.512z" />
<glyph unicode="&#xe9da;" d="M306.089 481.782c0-13.31-3.071-25.601-8.956-36.606-6.142-10.752-15.099-19.458-26.873-25.854-11.774-6.401-25.851-9.473-42.742-9.473h-25.847v-67.329h-65.011v211.968h90.602c25.335 0 44.789-6.655 58.35-19.712 13.566-13.057 20.475-30.721 20.475-52.993zM220.096 462.329c13.566 0 20.221 6.398 20.221 19.455s-6.655 19.458-20.221 19.458h-18.426v-38.911h18.426zM525.683 554.487l-74.221-147.71v-64.258h-65.011v64.258l-74.221 147.71h74.221l33.015-75.264 33.015 75.264h73.199zM644.693 342.519l-38.904 76.030h-0.254v-76.030h-65.007v211.968h96.484c16.891 0 31.223-3.071 42.997-9.217 11.774-5.885 20.734-14.336 26.617-24.831 6.142-10.498 8.956-22.27 8.956-35.327 0-14.082-3.838-26.626-11.774-37.632-7.677-11.009-18.679-18.945-33.012-23.553l45.043-81.152h-71.407l0.257-0.254zM605.535 462.838h25.847c6.142 0 11.006 1.283 14.079 4.097 3.071 3.071 4.606 7.681 4.606 13.823 0 5.633-1.535 9.985-4.863 13.057-3.068 3.071-7.677 4.863-13.82 4.863h-25.847v-35.84zM869.403 374.521h-69.102l-10.236-32.002h-68.078l75.755 211.968h74.991l75.5-211.968h-68.591l-10.239 32.002zM853.536 424.438l-18.683 58.882-18.683-58.882h37.366z" />
<glyph unicode="&#xe9db;" d="M812.285 12.8h-49.922v12.798c0 56.322-45.054 102.401-100.098 102.401h-112.639v117.246c-12.544-1.535-25.088-2.046-37.632-2.046s-25.088 0.513-37.632 2.046v-117.246h-112.642c-55.039 0-100.095-46.079-100.095-102.401v-12.798h-49.922c-20.478 0-37.632-17.407-37.632-38.398s16.894-38.402 37.632-38.402h600.576c20.478 0 37.632 17.411 37.632 38.402s-16.898 38.398-37.632 38.398z" />
<glyph unicode="&#xe9dc;" d="M187.657 466.431c-33.026 12.798-61.953 33.791-84.994 57.344-46.592 52.734-77.056 115.713-77.056 189.439s56.577 131.582 128.515 131.582h27.902c-13.057-27.134-20.478-57.344-20.478-89.6v-153.599c0-48.127 8.96-93.697 26.113-135.166z" />
<glyph unicode="&#xe9dd;" d="M998.392 713.214c0-73.726-30.46-136.704-77.052-189.439-23.042-23.553-51.968-44.546-84.994-57.344 16.898 41.47 26.113 87.041 26.113 135.166v153.599c0 32.256-7.422 62.466-20.478 89.6h27.902c71.937 0 128.511-57.857 128.511-131.582z" />
<glyph unicode="&#xe9de;" d="M662.306 960h-300.289c-110.591 0-200.191-91.649-200.191-204.8v-153.599c0-198.145 156.67-358.399 350.206-358.399s350.209 160.254 350.209 358.399v153.599c0 113.15-89.6 204.8-200.191 204.8h0.254zM654.37 629.76l-30.977-38.911c-5.122-5.633-8.447-16.894-7.934-24.575l3.071-50.176c2.046-30.721-19.458-46.592-47.617-35.327l-45.566 18.429c-6.914 2.562-18.945 2.562-26.113 0l-45.566-18.429c-27.905-11.265-49.663 4.606-47.617 35.327l3.071 50.176c0.513 7.681-3.071 18.942-7.934 24.575l-30.977 38.911c-19.458 23.55-11.006 49.663 17.92 57.344l47.617 12.29c7.422 2.046 16.641 9.214 20.478 15.871l26.626 41.982c16.637 26.113 42.495 26.113 59.136 0l26.623-41.982c4.097-6.655 13.057-13.823 20.478-15.871l47.617-12.29c28.929-7.681 37.632-33.794 17.92-57.344h-0.254z" />
<glyph unicode="&#xe9df;" d="M654.109 629.756l-30.977-38.911c-5.122-5.633-8.447-16.898-7.934-24.579l3.071-50.172c2.046-30.721-19.458-46.595-47.617-35.331l-45.566 18.433c-6.914 2.558-18.945 2.558-26.113 0l-45.566-18.433c-27.905-11.265-49.663 4.609-47.617 35.331l3.071 50.172c0.513 7.681-3.071 18.945-7.934 24.579l-30.977 38.911c-19.455 23.55-11.006 49.663 17.92 57.344l47.617 12.287c7.422 2.049 16.641 9.217 20.478 15.874l26.626 41.982c16.641 26.113 42.495 26.113 59.136 0l26.623-41.982c4.097-6.655 13.057-13.823 20.482-15.874l47.614-12.287c28.929-7.681 37.632-33.794 17.92-57.344h-0.254z" />
<glyph unicode="&#xe9e0;" d="M227.325 785.711l0.513 1.535 28.926-39.667c0 0-3.838-2.562-10.752-7.422-6.911-4.61-17.407-11.774-30.207-20.988-5.633-4.863-11.778-9.982-18.687-15.866-7.168-5.63-14.849-11.519-22.017-19.45-7.425-7.422-15.615-15.612-24.066-23.805-7.422-9.21-15.871-18.683-24.063-28.662-8.194-9.982-15.871-21.501-24.063-33.016-4.351-5.63-7.425-12.031-11.265-18.17-3.838-6.402-7.422-12.798-11.265-19.196-6.911-13.307-12.798-27.64-19.712-41.718-2.559-7.677-5.376-15.099-7.935-22.523-2.559-7.935-6.143-15.358-7.681-23.289-3.838-15.871-8.96-31.736-10.752-48.627-1.279-8.447-2.818-16.891-3.584-25.338-0.513-8.19-0.767-16.634-1.279-25.594-0.513-4.351-0.767-8.444-0.513-12.794l0.767-13.053c0.513-8.447 0.513-17.404 1.538-25.851l4.097-25.848c1.022-4.351 1.279-8.703 2.305-12.794l3.838-12.798c7.681-34.038 24.322-66.031 41.47-95.205 5.122-7.681 10.243-14.845 15.362-22.267 5.376-6.398 10.752-13.053 16.128-19.45 11.519-12.541 23.296-24.826 36.097-35.574 25.855-21.242 53.247-38.647 81.149-51.954 27.906-13.311 56.065-21.754 82.178-28.152 13.311-2.305 25.855-5.63 38.145-6.911 6.143-0.77 12.031-1.279 17.92-2.049 5.889-0.513 11.519-0.767 17.154-1.022 5.376-0.257 10.752-0.77 16.128-1.026 4.863 0.254 9.727 0.254 14.59 0.254h13.823c4.351 0.257 8.447 0.513 12.29 0.77 8.19 0.509 15.358 0.767 21.247 1.535 6.146 0.767 11.522 1.538 15.874 2.046 8.194 1.026 12.798 1.538 12.798 1.538s-4.606-0.767-12.798-2.046c-4.351-0.77-9.473-1.792-15.615-2.818-6.146-1.026-13.314-1.535-21.25-2.559-4.097-0.513-7.935-0.767-12.544-1.279-4.097-0.513-8.703-0.513-13.57-0.513-4.863-0.254-9.982-0.767-15.358-0.767h-3.33c-4.351 0-8.194 0-12.798 0-5.633 0-11.265 0.254-17.154 0.254-5.889 0.513-12.031 1.026-18.174 1.538-12.544 0.513-25.858 3.071-39.424 5.373-26.626 5.376-55.809 13.053-84.994 25.081-28.926 12.544-58.366 29.178-86.016 50.419-14.079 10.749-26.88 22.78-39.678 35.574-5.889 6.911-12.29 13.566-18.177 20.475-5.376 6.911-10.752 14.079-16.128 21.242-5.63 7.935-9.982 15.866-15.103 23.802-4.863 7.677-9.727 15.871-13.311 24.315l-11.778 25.594c-3.584 8.447-5.887 17.658-9.216 26.618l-4.352 13.307c-1.537 4.351-2.048 8.957-3.073 13.566l-5.632 27.386c-1.537 9.21-2.048 18.68-3.071 27.895l-1.279 13.82c0 4.351 0 9.214 0 13.82 0 9.214 0 18.174 0.256 27.643 0.256 8.957 1.792 17.913 2.56 27.127 1.537 18.17 5.887 35.32 9.471 52.724 1.279 8.698 4.608 16.891 6.913 25.335 2.56 8.19 5.376 16.378 7.681 24.568 6.655 15.358 12.544 31.224 19.455 45.815 3.841 6.911 7.425 14.074 11.265 20.984s6.914 14.079 11.519 20.221c8.194 12.794 15.874 25.594 24.322 36.855s16.895 21.754 24.834 32.246c8.447 9.473 17.15 18.429 24.831 26.873 7.425 8.703 16.128 15.871 23.553 22.78 7.677 6.655 14.59 13.053 20.734 18.683 12.801 9.982 22.783 17.404 29.442 22.523 6.911 5.376 10.495 7.935 10.495 7.935zM247.296 824.611h-0.257c9.727-7.935 20.479-17.15 29.951-25.081-5.889-2.818-3.838-6.911-1.535-9.214 4.351 2.814 8.447 5.63 12.798 8.703 0.257 0.254 0.767 0.767 1.279 0.767 0.513 0.257 1.279 0.767 2.049 1.026 1.535 0.767 3.584 1.535 5.376 2.301 2.046 0.77 4.351 1.792 6.398 2.305 0.77 0.257 1.538 0.513 2.305 0.767 0.513 0 1.279 0.257 1.538-0.509 0.254-0.513-0.257-0.77-0.513-1.026-0.513-0.254-1.026-0.513-1.279-0.767-1.538-1.279-3.33-2.305-4.61-3.071-4.61-2.559-9.214-5.63-13.823-8.19-6.143-3.584-12.031-6.911-17.92-10.239 3.838 2.049 9.473 5.376 13.823 7.935 33.794 8.447 65.279 15.358 94.976 31.224 0.767 0.513 1.792 1.535 1.792 1.535h0.257c14.59 10.495 30.207 19.709 45.567 29.178 2.046 1.279 3.584 2.305 5.376 3.327 2.046 0.77 4.351 1.792 6.143 2.305 1.538 0.257 2.818 0.257 3.584-0.767 0.513-1.026 0.257-2.046 0-2.818-0.513-1.279-1.279-2.046-2.305-2.814-1.022-0.513-1.792-1.026-2.559-1.538 5.376 3.071 11.006 6.143 17.154 9.982 95.743 46.069 49.919 73.967-24.834 16.891-4.097-1.789-7.681-3.838-11.519-5.885-8.194-4.351-16.641-8.19-24.834-12.541-11.774-1.535-23.296-2.046-35.070-3.071-3.075-1.026-9.73-4.351-10.752-5.885 7.422-1.279 14.845-2.818 21.758-3.841-16.128-8.444-33.282-16.634-49.663-25.081-21.25 2.305-39.424 6.911-58.623 10.752-3.841-2.049-7.938-4.61-12.031-6.655zM427.519 845.34l0.513 0.254c0.513 0.257 1.026 0.513 1.279 0.77 3.071 1.792 6.146 3.838 9.217 6.143 3.584 2.046 3.838 5.885-0.257 5.373-3.838-1.022-8.19-3.838-11.519-5.885-15.103-9.469-31.231-18.429-45.567-28.922-1.279-2.046-24.322-15.355-24.322-15.355-10.498-5.63-19.966-10.749-29.951-16.125 3.584 1.026 5.889 2.046 12.031 4.351 5.889 3.071 19.712 9.469 27.393 13.307 0 0.257 0.254 0.257 0.254 0.257 6.914 4.093 13.823 8.19 20.738 12.541h0.513c3.584 2.301 8.703 5.373 12.798 7.677 7.681 4.351 17.407 9.982 24.322 14.333 0.767 0.254 2.559 1.279 2.559 1.279zM265.216 782.38v-0.254c-0.172-0.172-0.257-0.257-0.257-0.257 1.279 0.257 3.33 0.513 4.097 0.77 8.447 5.119 38.399 22.264 38.145 22.776-0.513 1.026-16.128-5.63-18.433-7.165-6.655-4.61-13.57-9.214-20.479-14.079-1.279-0.513-3.071-1.792-3.071-1.792zM271.359 822.564l0.254 0.254h-0.513v-0.513h-0.254l-1.538-1.792v-0.509l-1.022-1.792h-0.257v-0.513h0.257l1.022-2.046 0.77-2.049 0.254-0.513h0.257l0.254-0.254h1.792l0.513-0.254h3.071v0.509l1.538 1.792v0.513l1.022 1.538 0.257 0.254h0.254l-0.254 0.513-2.049 4.093v0.513h-0.513l-0.254 0.257h-4.863zM273.917 821.285v-0.257h2.305l1.026-2.046 0.767-2.046-1.279-1.792-1.279-1.538h-4.61l-1.026 2.049-1.022 2.046 1.279 2.046 1.279 1.538h2.559zM504.832 904.718c-21.504 5.63-31.234-4.863-23.553-5.885 2.049-0.257 4.354-0.257 8.447 0.254 4.097 0.513 11.265 4.351 15.106 5.63zM451.326 885.266h0.257l1.792-4.097 2.559 1.283-1.792 3.838-2.818-1.026zM457.983 888.338l1.538-3.838 2.559 1.022-1.792 4.097-2.305-1.279zM464.382 891.152l1.538-3.838 2.559 1.026-1.792 4.097-2.305-1.283zM427.263 844.316c2.305 0.257 3.838 0 5.889 0.513 0.254-1.535 0.767-3.581 1.792-5.373 0.767-1.792 1.792-3.584 2.559-4.863-1.792-1.279-4.351-2.046-6.914-3.071-0.254 0-0.767 0.513-1.535 0.254-4.097-1.279-15.615-6.398-17.92-5.119-0.767 1.792 3.327 3.838 5.889 6.143-5.633-1.026-8.96-1.792-14.082-3.071 7.425 4.606 15.103 8.703 22.53 13.307 0.767 0.513 1.279 0.77 1.792 1.026v0.254zM390.91 823.073l-0.254-0.254c-0.77-0.513-2.562-1.792-2.562-1.792h-0.513l-17.92-10.749c3.33 0.767 7.425 1.535 12.29 0.767-1.538-1.279-3.584-3.071-3.584-4.351 1.026-0.767 2.305-0.767 3.584-0.513 1.792 0.257 3.33 0.77 4.863 1.279 3.33 1.283 6.655 2.818 9.727 4.097 0-0.254 0.257-0.767 0.77-0.767 2.814 1.535 5.889 3.071 8.19 4.351-0.767 1.022-1.792 2.814-2.559 4.351-0.767 2.301-1.279 3.838-1.535 5.373-3.841-1.022-7.425-1.022-10.498-1.792zM434.174 845.086c1.792 0.254 5.889-7.935 4.61-9.727 0 2.046-2.305 7.422-4.351 9.727h-0.257zM402.175 825.124c1.535-1.538 4.097-6.143 4.097-9.214 0.341 0.172 0.513 0.254 0.513 0.254 0.254 3.071-3.33 9.214-4.61 8.96zM314.622 804.135c43.778 21.754 81.41 41.459 127.489 64.752 6.398 3.584 59.649 31.224 62.207 31.479-3.071-7.935-59.649-35.317-70.655-40.947 0 0 0-0.257-0.513-0.257-22.274-11.515-44.287-23.034-66.817-34.038-18.433-9.727-30.464-15.612-46.079-22.523-1.792 0.509-3.841 1.279-5.633 1.792v-0.257zM910.591 99.808c17.154 17.15 33.023 35.833 46.592 56.051h-136.705c-19.199-57.071-45.313-109.025-78.082-154.581 64.512 18.17 122.113 52.721 168.195 98.532zM564.222-6.148c18.946-3.838 38.658-6.143 58.623-6.655v168.66h-147.198c21.504-60.911 51.711-115.68 88.575-162.005zM251.39 357.532c2.305-62.96 19.712-121.569 48.897-173.266h136.449c-15.362 54.513-24.575 112.865-25.858 173.266h-159.488zM652.289 589.152h137.984c-22.017 61.681-52.738 117.219-90.37 163.541-15.358 2.814-31.486 4.351-47.614 4.863v-168.405zM799.487 561h-146.944v-174.036h174.337c-1.538 61.168-10.752 119.523-27.393 174.036zM622.847 589.152v168.405c-19.966-0.77-39.678-2.818-58.623-6.655-36.866-46.582-66.817-101.094-88.575-161.749h147.198zM622.847 561h-156.417c-16.637-54.513-25.855-112.868-27.389-174.036h183.806v174.036zM410.878 386.964c1.283 60.914 10.243 119.264 25.858 174.036h-136.192c-29.442-51.954-46.849-110.821-49.154-174.036h159.488zM439.294 357.532c1.792-60.655 10.752-119.011 27.134-173.266h156.674v173.266h-183.81zM652.543 155.857v-168.66c16.128 0.513 32.002 2.559 47.618 4.606 37.886 47.094 68.609 102.373 90.367 164.054h-137.984zM652.543 184.009h147.457c16.128 54.003 25.601 112.609 26.88 173.27h-174.337v-173.27zM855.294 357.278v-0.257c-1.279-60.398-9.982-118.498-25.597-173.266h144.382v-1.792c29.698 52.467 47.618 111.843 49.922 175.315h-168.706zM855.294 386.71h168.706c-2.305 63.215-19.969 122.336-49.151 174.033h-145.409c15.615-54.766 24.575-113.122 25.855-174.033zM957.183 588.895v-0.254c-13.57 19.962-29.185 38.647-46.338 56.051-45.822 45.812-103.423 80.106-168.191 98.277 32.256-45.812 58.879-97.51 77.823-154.072h136.705zM364.798 644.944c-17.15-17.404-32.769-36.087-46.592-56.051h127.489c18.942 55.283 44.287 106.216 75.518 150.747-59.903-18.683-113.409-51.445-156.417-94.696zM317.951 155.603h127.486c18.946-55.283 44.287-106.211 75.777-151.001-59.903 18.683-113.409 51.699-156.417 94.952-17.407 17.147-33.023 35.83-46.846 56.051z" />
</font>
</defs>
</svg>
